<svg width="744" height="982" viewBox="0 0 744 982" fill="none" xmlns="http://www.w3.org/2000/svg">
<path d="M146.275 863C144.475 863 143.575 862.1 143.575 860.3V823.4C143.575 821.6 144.475 820.7 146.275 820.7H160.495C164.855 820.7 168.215 821.68 170.575 823.64C172.975 825.56 174.175 828.26 174.175 831.74C174.175 834.06 173.575 836.04 172.375 837.68C171.175 839.32 169.515 840.52 167.395 841.28C169.835 841.92 171.735 843.1 173.095 844.82C174.495 846.54 175.195 848.72 175.195 851.36C175.195 855.12 173.975 858 171.535 860C169.095 862 165.655 863 161.215 863H146.275ZM148.375 839.6H159.775C166.135 839.6 169.315 837.12 169.315 832.16C169.315 827.16 166.135 824.66 159.775 824.66H148.375V839.6ZM148.375 859.04H160.735C167.135 859.04 170.335 856.46 170.335 851.3C170.335 846.14 167.135 843.56 160.735 843.56H148.375V859.04ZM185.862 826.82C183.742 826.82 182.682 825.82 182.682 823.82C182.682 821.86 183.742 820.88 185.862 820.88C187.982 820.88 189.042 821.86 189.042 823.82C189.042 825.82 187.982 826.82 185.862 826.82ZM185.862 863.3C184.262 863.3 183.462 862.42 183.462 860.66V836.12C183.462 834.4 184.262 833.54 185.862 833.54C187.502 833.54 188.322 834.4 188.322 836.12V860.66C188.322 862.42 187.502 863.3 185.862 863.3ZM210.548 863.54C205.948 863.54 202.308 862.2 199.628 859.52C196.948 856.8 195.608 853.12 195.608 848.48C195.608 845.48 196.208 842.84 197.408 840.56C198.608 838.24 200.248 836.46 202.328 835.22C204.448 833.94 206.888 833.3 209.648 833.3C213.608 833.3 216.708 834.58 218.948 837.14C221.188 839.66 222.308 843.14 222.308 847.58C222.308 848.82 221.608 849.44 220.208 849.44H200.348C200.508 852.76 201.468 855.3 203.228 857.06C204.988 858.78 207.428 859.64 210.548 859.64C211.868 859.64 213.208 859.48 214.568 859.16C215.928 858.8 217.248 858.18 218.528 857.3C219.448 856.7 220.208 856.58 220.808 856.94C221.448 857.3 221.768 857.86 221.768 858.62C221.808 859.34 221.408 859.98 220.568 860.54C219.248 861.5 217.668 862.24 215.828 862.76C214.028 863.28 212.268 863.54 210.548 863.54ZM209.768 836.9C207.008 836.9 204.828 837.76 203.228 839.48C201.628 841.2 200.688 843.46 200.408 846.26H218.108C217.988 843.3 217.208 841 215.768 839.36C214.368 837.72 212.368 836.9 209.768 836.9ZM231.741 863.42C230.141 863.42 229.341 862.58 229.341 860.9V835.88C229.341 834.24 230.121 833.42 231.681 833.42C233.281 833.42 234.081 834.24 234.081 835.88V838.82C235.041 836.98 236.401 835.6 238.161 834.68C239.921 833.76 241.901 833.3 244.101 833.3C251.021 833.3 254.481 837.14 254.481 844.82V860.9C254.481 862.58 253.681 863.42 252.081 863.42C250.441 863.42 249.621 862.58 249.621 860.9V845.12C249.621 842.4 249.081 840.42 248.001 839.18C246.961 837.9 245.281 837.26 242.961 837.26C240.281 837.26 238.141 838.1 236.541 839.78C234.981 841.42 234.201 843.62 234.201 846.38V860.9C234.201 862.58 233.381 863.42 231.741 863.42ZM274.01 863.42C272.61 863.42 271.57 862.64 270.89 861.08L260.51 836.84C260.11 835.92 260.09 835.12 260.45 834.44C260.81 833.76 261.53 833.42 262.61 833.42C263.73 833.42 264.55 834.06 265.07 835.34L274.13 857.48L283.31 835.34C283.59 834.62 283.91 834.12 284.27 833.84C284.63 833.56 285.15 833.42 285.83 833.42C286.75 833.42 287.37 833.76 287.69 834.44C288.01 835.12 287.99 835.9 287.63 836.78L277.13 861.08C276.49 862.64 275.45 863.42 274.01 863.42ZM306.759 863.54C302.159 863.54 298.519 862.2 295.839 859.52C293.159 856.8 291.819 853.12 291.819 848.48C291.819 845.48 292.419 842.84 293.619 840.56C294.819 838.24 296.459 836.46 298.539 835.22C300.659 833.94 303.099 833.3 305.859 833.3C309.819 833.3 312.919 834.58 315.159 837.14C317.399 839.66 318.519 843.14 318.519 847.58C318.519 848.82 317.819 849.44 316.419 849.44H296.559C296.719 852.76 297.679 855.3 299.439 857.06C301.199 858.78 303.639 859.64 306.759 859.64C308.079 859.64 309.419 859.48 310.779 859.16C312.139 858.8 313.459 858.18 314.739 857.3C315.659 856.7 316.419 856.58 317.019 856.94C317.659 857.3 317.979 857.86 317.979 858.62C318.019 859.34 317.619 859.98 316.779 860.54C315.459 861.5 313.879 862.24 312.039 862.76C310.239 863.28 308.479 863.54 306.759 863.54ZM305.979 836.9C303.219 836.9 301.039 837.76 299.439 839.48C297.839 841.2 296.899 843.46 296.619 846.26H314.319C314.199 843.3 313.419 841 311.979 839.36C310.579 837.72 308.579 836.9 305.979 836.9ZM327.952 863.42C326.352 863.42 325.552 862.58 325.552 860.9V835.88C325.552 834.24 326.332 833.42 327.892 833.42C329.492 833.42 330.292 834.24 330.292 835.88V838.82C331.252 836.98 332.612 835.6 334.372 834.68C336.132 833.76 338.112 833.3 340.312 833.3C347.232 833.3 350.692 837.14 350.692 844.82V860.9C350.692 862.58 349.892 863.42 348.292 863.42C346.652 863.42 345.832 862.58 345.832 860.9V845.12C345.832 842.4 345.292 840.42 344.212 839.18C343.172 837.9 341.492 837.26 339.172 837.26C336.492 837.26 334.352 838.1 332.752 839.78C331.192 841.42 330.412 843.62 330.412 846.38V860.9C330.412 862.58 329.592 863.42 327.952 863.42ZM362.054 826.82C359.934 826.82 358.874 825.82 358.874 823.82C358.874 821.86 359.934 820.88 362.054 820.88C364.174 820.88 365.234 821.86 365.234 823.82C365.234 825.82 364.174 826.82 362.054 826.82ZM362.054 863.3C360.454 863.3 359.654 862.42 359.654 860.66V836.12C359.654 834.4 360.454 833.54 362.054 833.54C363.694 833.54 364.514 834.4 364.514 836.12V860.66C364.514 862.42 363.694 863.3 362.054 863.3ZM384.699 863.54C382.099 863.54 379.819 862.92 377.859 861.68C375.939 860.44 374.439 858.7 373.359 856.46C372.319 854.18 371.799 851.5 371.799 848.42C371.799 845.3 372.319 842.62 373.359 840.38C374.439 838.1 375.939 836.36 377.859 835.16C379.819 833.92 382.099 833.3 384.699 833.3C386.979 833.3 388.979 833.8 390.699 834.8C392.459 835.8 393.759 837.18 394.599 838.94V822.74C394.599 821.1 395.419 820.28 397.059 820.28C398.659 820.28 399.459 821.1 399.459 822.74V860.9C399.459 862.58 398.659 863.42 397.059 863.42C395.459 863.42 394.659 862.58 394.659 860.9V857.78C393.779 859.58 392.459 861 390.699 862.04C388.979 863.04 386.979 863.54 384.699 863.54ZM385.719 859.64C388.439 859.64 390.619 858.68 392.259 856.76C393.899 854.8 394.719 852.02 394.719 848.42C394.719 844.78 393.899 842 392.259 840.08C390.619 838.16 388.439 837.2 385.719 837.2C382.959 837.2 380.759 838.16 379.119 840.08C377.519 842 376.719 844.78 376.719 848.42C376.719 852.02 377.519 854.8 379.119 856.76C380.759 858.68 382.959 859.64 385.719 859.64ZM420.7 863.54C417.86 863.54 415.4 862.92 413.32 861.68C411.24 860.44 409.62 858.7 408.46 856.46C407.34 854.18 406.78 851.5 406.78 848.42C406.78 845.34 407.34 842.68 408.46 840.44C409.62 838.16 411.24 836.4 413.32 835.16C415.4 833.92 417.86 833.3 420.7 833.3C423.5 833.3 425.94 833.92 428.02 835.16C430.14 836.4 431.76 838.16 432.88 840.44C434.04 842.68 434.62 845.34 434.62 848.42C434.62 851.5 434.04 854.18 432.88 856.46C431.76 858.7 430.14 860.44 428.02 861.68C425.94 862.92 423.5 863.54 420.7 863.54ZM420.7 859.64C423.42 859.64 425.6 858.68 427.24 856.76C428.88 854.8 429.7 852.02 429.7 848.42C429.7 844.78 428.88 842 427.24 840.08C425.6 838.16 423.42 837.2 420.7 837.2C417.94 837.2 415.74 838.16 414.1 840.08C412.5 842 411.7 844.78 411.7 848.42C411.7 852.02 412.5 854.8 414.1 856.76C415.74 858.68 417.94 859.64 420.7 859.64ZM466.568 863.54C464.568 863.54 462.768 863.16 461.168 862.4C459.608 861.6 458.368 860.52 457.448 859.16C456.528 857.8 456.068 856.28 456.068 854.6C456.068 852.48 456.608 850.8 457.688 849.56C458.808 848.32 460.628 847.44 463.148 846.92C465.708 846.36 469.188 846.08 473.588 846.08H475.508V844.22C475.508 841.74 474.988 839.96 473.948 838.88C472.948 837.76 471.328 837.2 469.088 837.2C467.688 837.2 466.268 837.38 464.828 837.74C463.428 838.1 461.968 838.68 460.448 839.48C459.768 839.84 459.188 839.92 458.708 839.72C458.268 839.48 457.948 839.12 457.748 838.64C457.588 838.12 457.588 837.6 457.748 837.08C457.948 836.52 458.348 836.1 458.948 835.82C460.668 834.94 462.388 834.3 464.108 833.9C465.868 833.5 467.528 833.3 469.088 833.3C472.848 833.3 475.628 834.22 477.428 836.06C479.268 837.9 480.188 840.76 480.188 844.64V860.9C480.188 862.58 479.448 863.42 477.968 863.42C476.408 863.42 475.628 862.58 475.628 860.9V857.96C474.868 859.68 473.688 861.04 472.088 862.04C470.528 863.04 468.688 863.54 466.568 863.54ZM467.348 859.88C469.748 859.88 471.708 859.06 473.228 857.42C474.748 855.74 475.508 853.62 475.508 851.06V849.26H473.648C470.408 849.26 467.848 849.42 465.968 849.74C464.128 850.02 462.828 850.54 462.068 851.3C461.348 852.02 460.988 853.02 460.988 854.3C460.988 855.94 461.548 857.28 462.668 858.32C463.828 859.36 465.388 859.88 467.348 859.88ZM234.511 945.54C231.631 945.54 228.911 945.2 226.351 944.52C223.831 943.8 221.651 942.76 219.811 941.4C219.171 940.96 218.791 940.44 218.671 939.84C218.551 939.24 218.611 938.68 218.851 938.16C219.131 937.64 219.531 937.3 220.051 937.14C220.571 936.94 221.171 937.06 221.851 937.5C223.651 938.82 225.571 939.76 227.611 940.32C229.651 940.88 231.951 941.16 234.511 941.16C238.111 941.16 240.771 940.5 242.491 939.18C244.251 937.82 245.131 936.04 245.131 933.84C245.131 932.08 244.491 930.68 243.211 929.64C241.971 928.6 239.871 927.78 236.911 927.18L230.671 925.92C226.911 925.12 224.091 923.82 222.211 922.02C220.371 920.18 219.451 917.74 219.451 914.7C219.451 912.18 220.091 909.98 221.371 908.1C222.691 906.22 224.511 904.76 226.831 903.72C229.151 902.68 231.831 902.16 234.871 902.16C237.391 902.16 239.731 902.52 241.891 903.24C244.091 903.92 246.071 904.96 247.831 906.36C248.391 906.8 248.711 907.32 248.791 907.92C248.911 908.48 248.831 909 248.551 909.48C248.271 909.96 247.871 910.28 247.351 910.44C246.831 910.56 246.211 910.4 245.491 909.96C243.891 908.72 242.211 907.84 240.451 907.32C238.731 906.8 236.851 906.54 234.811 906.54C231.651 906.54 229.131 907.28 227.251 908.76C225.371 910.2 224.431 912.12 224.431 914.52C224.431 916.44 225.011 917.96 226.171 919.08C227.371 920.2 229.311 921.02 231.991 921.54L238.231 922.86C242.271 923.7 245.251 924.98 247.171 926.7C249.131 928.38 250.111 930.68 250.111 933.6C250.111 935.96 249.471 938.04 248.191 939.84C246.951 941.64 245.151 943.04 242.791 944.04C240.471 945.04 237.711 945.54 234.511 945.54ZM259.485 956.22C257.885 956.22 257.085 955.4 257.085 953.76V917.88C257.085 916.24 257.865 915.42 259.425 915.42C261.065 915.42 261.885 916.24 261.885 917.88V921C262.725 919.24 264.025 917.86 265.785 916.86C267.545 915.82 269.565 915.3 271.845 915.3C274.445 915.3 276.705 915.92 278.625 917.16C280.585 918.36 282.085 920.1 283.125 922.38C284.205 924.62 284.745 927.3 284.745 930.42C284.745 933.5 284.205 936.18 283.125 938.46C282.085 940.7 280.585 942.44 278.625 943.68C276.705 944.92 274.445 945.54 271.845 945.54C269.605 945.54 267.605 945.04 265.845 944.04C264.085 943.04 262.785 941.66 261.945 939.9V953.76C261.945 955.4 261.125 956.22 259.485 956.22ZM270.825 941.64C273.545 941.64 275.725 940.68 277.365 938.76C279.005 936.8 279.825 934.02 279.825 930.42C279.825 926.78 279.005 924 277.365 922.08C275.725 920.16 273.545 919.2 270.825 919.2C268.105 919.2 265.925 920.16 264.285 922.08C262.645 924 261.825 926.78 261.825 930.42C261.825 934.02 262.645 936.8 264.285 938.76C265.925 940.68 268.105 941.64 270.825 941.64ZM294.526 945.42C292.886 945.42 292.066 944.58 292.066 942.9V917.88C292.066 916.24 292.846 915.42 294.406 915.42C296.006 915.42 296.806 916.24 296.806 917.88V921.06C297.606 919.22 298.846 917.82 300.526 916.86C302.206 915.86 304.206 915.32 306.526 915.24C307.806 915.12 308.486 915.76 308.566 917.16C308.686 918.56 307.966 919.34 306.406 919.5L305.446 919.62C302.686 919.86 300.586 920.74 299.146 922.26C297.706 923.74 296.986 925.78 296.986 928.38V942.9C296.986 944.58 296.166 945.42 294.526 945.42ZM326.358 945.54C321.758 945.54 318.118 944.2 315.438 941.52C312.758 938.8 311.418 935.12 311.418 930.48C311.418 927.48 312.018 924.84 313.218 922.56C314.418 920.24 316.058 918.46 318.138 917.22C320.258 915.94 322.698 915.3 325.458 915.3C329.418 915.3 332.518 916.58 334.758 919.14C336.998 921.66 338.118 925.14 338.118 929.58C338.118 930.82 337.418 931.44 336.018 931.44H316.158C316.318 934.76 317.278 937.3 319.038 939.06C320.798 940.78 323.238 941.64 326.358 941.64C327.678 941.64 329.018 941.48 330.378 941.16C331.738 940.8 333.058 940.18 334.338 939.3C335.258 938.7 336.018 938.58 336.618 938.94C337.258 939.3 337.578 939.86 337.578 940.62C337.618 941.34 337.218 941.98 336.378 942.54C335.058 943.5 333.478 944.24 331.638 944.76C329.838 945.28 328.078 945.54 326.358 945.54ZM325.578 918.9C322.818 918.9 320.638 919.76 319.038 921.48C317.438 923.2 316.498 925.46 316.218 928.26H333.918C333.798 925.3 333.018 923 331.578 921.36C330.178 919.72 328.178 918.9 325.578 918.9ZM354.332 945.54C352.332 945.54 350.532 945.16 348.932 944.4C347.372 943.6 346.132 942.52 345.212 941.16C344.292 939.8 343.832 938.28 343.832 936.6C343.832 934.48 344.372 932.8 345.452 931.56C346.572 930.32 348.392 929.44 350.912 928.92C353.472 928.36 356.952 928.08 361.352 928.08H363.272V926.22C363.272 923.74 362.752 921.96 361.712 920.88C360.712 919.76 359.092 919.2 356.852 919.2C355.452 919.2 354.032 919.38 352.592 919.74C351.192 920.1 349.732 920.68 348.212 921.48C347.532 921.84 346.952 921.92 346.472 921.72C346.032 921.48 345.712 921.12 345.512 920.64C345.352 920.12 345.352 919.6 345.512 919.08C345.712 918.52 346.112 918.1 346.712 917.82C348.432 916.94 350.152 916.3 351.872 915.9C353.632 915.5 355.292 915.3 356.852 915.3C360.612 915.3 363.392 916.22 365.192 918.06C367.032 919.9 367.952 922.76 367.952 926.64V942.9C367.952 944.58 367.212 945.42 365.732 945.42C364.172 945.42 363.392 944.58 363.392 942.9V939.96C362.632 941.68 361.452 943.04 359.852 944.04C358.292 945.04 356.452 945.54 354.332 945.54ZM355.112 941.88C357.512 941.88 359.472 941.06 360.992 939.42C362.512 937.74 363.272 935.62 363.272 933.06V931.26H361.412C358.172 931.26 355.612 931.42 353.732 931.74C351.892 932.02 350.592 932.54 349.832 933.3C349.112 934.02 348.752 935.02 348.752 936.3C348.752 937.94 349.312 939.28 350.432 940.32C351.592 941.36 353.152 941.88 355.112 941.88ZM388.068 945.54C385.468 945.54 383.188 944.92 381.228 943.68C379.308 942.44 377.808 940.7 376.728 938.46C375.688 936.18 375.168 933.5 375.168 930.42C375.168 927.3 375.688 924.62 376.728 922.38C377.808 920.1 379.308 918.36 381.228 917.16C383.188 915.92 385.468 915.3 388.068 915.3C390.348 915.3 392.348 915.8 394.068 916.8C395.828 917.8 397.128 919.18 397.968 920.94V904.74C397.968 903.1 398.788 902.28 400.428 902.28C402.028 902.28 402.828 903.1 402.828 904.74V942.9C402.828 944.58 402.028 945.42 400.428 945.42C398.828 945.42 398.028 944.58 398.028 942.9V939.78C397.148 941.58 395.828 943 394.068 944.04C392.348 945.04 390.348 945.54 388.068 945.54ZM389.088 941.64C391.808 941.64 393.988 940.68 395.628 938.76C397.268 936.8 398.088 934.02 398.088 930.42C398.088 926.78 397.268 924 395.628 922.08C393.988 920.16 391.808 919.2 389.088 919.2C386.328 919.2 384.128 920.16 382.488 922.08C380.888 924 380.088 926.78 380.088 930.42C380.088 934.02 380.888 936.8 382.488 938.76C384.128 940.68 386.328 941.64 389.088 941.64Z" fill="white"/>
<path d="M1 982V0C97.9105 289.731 175.015 425.647 379.755 528.73C763.014 700.922 743 773 743 982H1Z" fill="#009B78" stroke="#009B78"/>
<circle cx="53" cy="933" r="85" fill="white" fill-opacity="0.15"/>
<circle cx="485" cy="341" r="50" fill="#21A88A" fill-opacity="0.21"/>
<circle cx="365" cy="310" r="25" fill="#21A88A" fill-opacity="0.21"/>
<circle cx="201" cy="884" r="50" fill="white" fill-opacity="0.15"/>
<circle cx="105" cy="802" r="25" fill="white" fill-opacity="0.15"/>
<circle cx="545" cy="492" r="85" fill="#21A88A" fill-opacity="0.21"/>
<g clip-path="url(#clip0_0_1)">
<path d="M426 366.438C430.774 366.438 435.352 368.696 438.728 372.716C442.104 376.737 444 382.189 444 387.875V645.125C444 650.811 442.104 656.263 438.728 660.284C435.352 664.304 430.774 666.562 426 666.562H318C313.226 666.562 308.648 664.304 305.272 660.284C301.896 656.263 300 650.811 300 645.125V387.875C300 382.189 301.896 376.737 305.272 372.716C308.648 368.696 313.226 366.438 318 366.438H426ZM318 345C308.452 345 299.295 349.517 292.544 357.558C285.793 365.598 282 376.504 282 387.875V645.125C282 656.496 285.793 667.402 292.544 675.442C299.295 683.483 308.452 688 318 688H426C435.548 688 444.705 683.483 451.456 675.442C458.207 667.402 462 656.496 462 645.125V387.875C462 376.504 458.207 365.598 451.456 357.558C444.705 349.517 435.548 345 426 345H318Z" fill="url(#paint0_linear_0_1)"/>
<path d="M372 645.125C376.774 645.125 381.352 642.866 384.728 638.846C388.104 634.826 390 629.373 390 623.688C390 618.002 388.104 612.549 384.728 608.529C381.352 604.509 376.774 602.25 372 602.25C367.226 602.25 362.648 604.509 359.272 608.529C355.896 612.549 354 618.002 354 623.688C354 629.373 355.896 634.826 359.272 638.846C362.648 642.866 367.226 645.125 372 645.125Z" fill="url(#paint1_linear_0_1)"/>
<rect x="295" y="360" width="152" height="313" rx="10" fill="white"/>
<path d="M314.75 516H371V525.375H314.75V516ZM305.375 492.562H352.25V501.938H305.375V492.562Z" fill="#009B78"/>
<path d="M436.245 518.841L422.183 486.028C421.822 485.185 421.221 484.466 420.456 483.961C419.69 483.456 418.792 483.187 417.875 483.188H403.813V473.812C403.813 472.569 403.319 471.377 402.44 470.498C401.561 469.619 400.368 469.125 399.125 469.125H324.125V478.5H394.438V537.356C392.302 538.597 390.432 540.247 388.938 542.214C387.443 544.18 386.352 546.423 385.728 548.812H356.272C355.131 544.394 352.418 540.543 348.641 537.982C344.864 535.42 340.282 534.324 335.755 534.899C331.227 535.474 327.065 537.681 324.049 541.105C321.032 544.529 319.367 548.936 319.367 553.5C319.367 558.064 321.032 562.471 324.049 565.895C327.065 569.319 331.227 571.526 335.755 572.101C340.282 572.676 344.864 571.58 348.641 569.018C352.418 566.457 355.131 562.606 356.272 558.188H385.728C386.748 562.21 389.08 565.779 392.355 568.327C395.631 570.876 399.662 572.26 403.813 572.26C407.963 572.26 411.994 570.876 415.27 568.327C418.545 565.779 420.877 562.21 421.897 558.188H431.938C433.181 558.188 434.373 557.694 435.252 556.815C436.131 555.935 436.625 554.743 436.625 553.5V520.688C436.625 520.052 436.496 519.424 436.245 518.841V518.841ZM338.188 562.875C336.333 562.875 334.521 562.325 332.979 561.295C331.437 560.265 330.236 558.801 329.526 557.088C328.817 555.375 328.631 553.49 328.993 551.671C329.354 549.852 330.247 548.182 331.558 546.871C332.87 545.56 334.54 544.667 336.359 544.305C338.177 543.943 340.062 544.129 341.775 544.839C343.488 545.548 344.952 546.75 345.983 548.292C347.013 549.833 347.563 551.646 347.563 553.5C347.56 555.986 346.572 558.369 344.814 560.126C343.056 561.884 340.673 562.873 338.188 562.875V562.875ZM403.813 492.562H414.781L424.831 516H403.813V492.562ZM403.813 562.875C401.958 562.875 400.146 562.325 398.604 561.295C397.062 560.265 395.861 558.801 395.151 557.088C394.442 555.375 394.256 553.49 394.618 551.671C394.979 549.852 395.872 548.182 397.183 546.871C398.495 545.56 400.165 544.667 401.984 544.305C403.802 543.943 405.687 544.129 407.4 544.839C409.113 545.548 410.577 546.75 411.608 548.292C412.638 549.833 413.188 551.646 413.188 553.5C413.185 555.986 412.197 558.369 410.439 560.126C408.681 561.884 406.298 562.873 403.813 562.875ZM427.25 548.812H421.897C420.864 544.797 418.529 541.238 415.256 538.693C411.983 536.148 407.958 534.762 403.813 534.75V525.375H427.25V548.812Z" fill="#009B78"/>
</g>
<path d="M206.275 847C204.475 847 203.575 846.1 203.575 844.3V807.4C203.575 805.6 204.475 804.7 206.275 804.7H220.495C224.855 804.7 228.215 805.68 230.575 807.64C232.975 809.56 234.175 812.26 234.175 815.74C234.175 818.06 233.575 820.04 232.375 821.68C231.175 823.32 229.515 824.52 227.395 825.28C229.835 825.92 231.735 827.1 233.095 828.82C234.495 830.54 235.195 832.72 235.195 835.36C235.195 839.12 233.975 842 231.535 844C229.095 846 225.655 847 221.215 847H206.275ZM208.375 823.6H219.775C226.135 823.6 229.315 821.12 229.315 816.16C229.315 811.16 226.135 808.66 219.775 808.66H208.375V823.6ZM208.375 843.04H220.735C227.135 843.04 230.335 840.46 230.335 835.3C230.335 830.14 227.135 827.56 220.735 827.56H208.375V843.04ZM245.862 810.82C243.742 810.82 242.682 809.82 242.682 807.82C242.682 805.86 243.742 804.88 245.862 804.88C247.982 804.88 249.042 805.86 249.042 807.82C249.042 809.82 247.982 810.82 245.862 810.82ZM245.862 847.3C244.262 847.3 243.462 846.42 243.462 844.66V820.12C243.462 818.4 244.262 817.54 245.862 817.54C247.502 817.54 248.322 818.4 248.322 820.12V844.66C248.322 846.42 247.502 847.3 245.862 847.3ZM270.548 847.54C265.948 847.54 262.308 846.2 259.628 843.52C256.948 840.8 255.608 837.12 255.608 832.48C255.608 829.48 256.208 826.84 257.408 824.56C258.608 822.24 260.248 820.46 262.328 819.22C264.448 817.94 266.888 817.3 269.648 817.3C273.608 817.3 276.708 818.58 278.948 821.14C281.188 823.66 282.308 827.14 282.308 831.58C282.308 832.82 281.608 833.44 280.208 833.44H260.348C260.508 836.76 261.468 839.3 263.228 841.06C264.988 842.78 267.428 843.64 270.548 843.64C271.868 843.64 273.208 843.48 274.568 843.16C275.928 842.8 277.248 842.18 278.528 841.3C279.448 840.7 280.208 840.58 280.808 840.94C281.448 841.3 281.768 841.86 281.768 842.62C281.808 843.34 281.408 843.98 280.568 844.54C279.248 845.5 277.668 846.24 275.828 846.76C274.028 847.28 272.268 847.54 270.548 847.54ZM269.768 820.9C267.008 820.9 264.828 821.76 263.228 823.48C261.628 825.2 260.688 827.46 260.408 830.26H278.108C277.988 827.3 277.208 825 275.768 823.36C274.368 821.72 272.368 820.9 269.768 820.9ZM291.741 847.42C290.141 847.42 289.341 846.58 289.341 844.9V819.88C289.341 818.24 290.121 817.42 291.681 817.42C293.281 817.42 294.081 818.24 294.081 819.88V822.82C295.041 820.98 296.401 819.6 298.161 818.68C299.921 817.76 301.901 817.3 304.101 817.3C311.021 817.3 314.481 821.14 314.481 828.82V844.9C314.481 846.58 313.681 847.42 312.081 847.42C310.441 847.42 309.621 846.58 309.621 844.9V829.12C309.621 826.4 309.081 824.42 308.001 823.18C306.961 821.9 305.281 821.26 302.961 821.26C300.281 821.26 298.141 822.1 296.541 823.78C294.981 825.42 294.201 827.62 294.201 830.38V844.9C294.201 846.58 293.381 847.42 291.741 847.42ZM334.01 847.42C332.61 847.42 331.57 846.64 330.89 845.08L320.51 820.84C320.11 819.92 320.09 819.12 320.45 818.44C320.81 817.76 321.53 817.42 322.61 817.42C323.73 817.42 324.55 818.06 325.07 819.34L334.13 841.48L343.31 819.34C343.59 818.62 343.91 818.12 344.27 817.84C344.63 817.56 345.15 817.42 345.83 817.42C346.75 817.42 347.37 817.76 347.69 818.44C348.01 819.12 347.99 819.9 347.63 820.78L337.13 845.08C336.49 846.64 335.45 847.42 334.01 847.42ZM366.759 847.54C362.159 847.54 358.519 846.2 355.839 843.52C353.159 840.8 351.819 837.12 351.819 832.48C351.819 829.48 352.419 826.84 353.619 824.56C354.819 822.24 356.459 820.46 358.539 819.22C360.659 817.94 363.099 817.3 365.859 817.3C369.819 817.3 372.919 818.58 375.159 821.14C377.399 823.66 378.519 827.14 378.519 831.58C378.519 832.82 377.819 833.44 376.419 833.44H356.559C356.719 836.76 357.679 839.3 359.439 841.06C361.199 842.78 363.639 843.64 366.759 843.64C368.079 843.64 369.419 843.48 370.779 843.16C372.139 842.8 373.459 842.18 374.739 841.3C375.659 840.7 376.419 840.58 377.019 840.94C377.659 841.3 377.979 841.86 377.979 842.62C378.019 843.34 377.619 843.98 376.779 844.54C375.459 845.5 373.879 846.24 372.039 846.76C370.239 847.28 368.479 847.54 366.759 847.54ZM365.979 820.9C363.219 820.9 361.039 821.76 359.439 823.48C357.839 825.2 356.899 827.46 356.619 830.26H374.319C374.199 827.3 373.419 825 371.979 823.36C370.579 821.72 368.579 820.9 365.979 820.9ZM387.952 847.42C386.352 847.42 385.552 846.58 385.552 844.9V819.88C385.552 818.24 386.332 817.42 387.892 817.42C389.492 817.42 390.292 818.24 390.292 819.88V822.82C391.252 820.98 392.612 819.6 394.372 818.68C396.132 817.76 398.112 817.3 400.312 817.3C407.232 817.3 410.692 821.14 410.692 828.82V844.9C410.692 846.58 409.892 847.42 408.292 847.42C406.652 847.42 405.832 846.58 405.832 844.9V829.12C405.832 826.4 405.292 824.42 404.212 823.18C403.172 821.9 401.492 821.26 399.172 821.26C396.492 821.26 394.352 822.1 392.752 823.78C391.192 825.42 390.412 827.62 390.412 830.38V844.9C390.412 846.58 389.592 847.42 387.952 847.42ZM422.054 810.82C419.934 810.82 418.874 809.82 418.874 807.82C418.874 805.86 419.934 804.88 422.054 804.88C424.174 804.88 425.234 805.86 425.234 807.82C425.234 809.82 424.174 810.82 422.054 810.82ZM422.054 847.3C420.454 847.3 419.654 846.42 419.654 844.66V820.12C419.654 818.4 420.454 817.54 422.054 817.54C423.694 817.54 424.514 818.4 424.514 820.12V844.66C424.514 846.42 423.694 847.3 422.054 847.3ZM444.699 847.54C442.099 847.54 439.819 846.92 437.859 845.68C435.939 844.44 434.439 842.7 433.359 840.46C432.319 838.18 431.799 835.5 431.799 832.42C431.799 829.3 432.319 826.62 433.359 824.38C434.439 822.1 435.939 820.36 437.859 819.16C439.819 817.92 442.099 817.3 444.699 817.3C446.979 817.3 448.979 817.8 450.699 818.8C452.459 819.8 453.759 821.18 454.599 822.94V806.74C454.599 805.1 455.419 804.28 457.059 804.28C458.659 804.28 459.459 805.1 459.459 806.74V844.9C459.459 846.58 458.659 847.42 457.059 847.42C455.459 847.42 454.659 846.58 454.659 844.9V841.78C453.779 843.58 452.459 845 450.699 846.04C448.979 847.04 446.979 847.54 444.699 847.54ZM445.719 843.64C448.439 843.64 450.619 842.68 452.259 840.76C453.899 838.8 454.719 836.02 454.719 832.42C454.719 828.78 453.899 826 452.259 824.08C450.619 822.16 448.439 821.2 445.719 821.2C442.959 821.2 440.759 822.16 439.119 824.08C437.519 826 436.719 828.78 436.719 832.42C436.719 836.02 437.519 838.8 439.119 840.76C440.759 842.68 442.959 843.64 445.719 843.64ZM480.7 847.54C477.86 847.54 475.4 846.92 473.32 845.68C471.24 844.44 469.62 842.7 468.46 840.46C467.34 838.18 466.78 835.5 466.78 832.42C466.78 829.34 467.34 826.68 468.46 824.44C469.62 822.16 471.24 820.4 473.32 819.16C475.4 817.92 477.86 817.3 480.7 817.3C483.5 817.3 485.94 817.92 488.02 819.16C490.14 820.4 491.76 822.16 492.88 824.44C494.04 826.68 494.62 829.34 494.62 832.42C494.62 835.5 494.04 838.18 492.88 840.46C491.76 842.7 490.14 844.44 488.02 845.68C485.94 846.92 483.5 847.54 480.7 847.54ZM480.7 843.64C483.42 843.64 485.6 842.68 487.24 840.76C488.88 838.8 489.7 836.02 489.7 832.42C489.7 828.78 488.88 826 487.24 824.08C485.6 822.16 483.42 821.2 480.7 821.2C477.94 821.2 475.74 822.16 474.1 824.08C472.5 826 471.7 828.78 471.7 832.42C471.7 836.02 472.5 838.8 474.1 840.76C475.74 842.68 477.94 843.64 480.7 843.64ZM526.568 847.54C524.568 847.54 522.768 847.16 521.168 846.4C519.608 845.6 518.368 844.52 517.448 843.16C516.528 841.8 516.068 840.28 516.068 838.6C516.068 836.48 516.608 834.8 517.688 833.56C518.808 832.32 520.628 831.44 523.148 830.92C525.708 830.36 529.188 830.08 533.588 830.08H535.508V828.22C535.508 825.74 534.988 823.96 533.948 822.88C532.948 821.76 531.328 821.2 529.088 821.2C527.688 821.2 526.268 821.38 524.828 821.74C523.428 822.1 521.968 822.68 520.448 823.48C519.768 823.84 519.188 823.92 518.708 823.72C518.268 823.48 517.948 823.12 517.748 822.64C517.588 822.12 517.588 821.6 517.748 821.08C517.948 820.52 518.348 820.1 518.948 819.82C520.668 818.94 522.388 818.3 524.108 817.9C525.868 817.5 527.528 817.3 529.088 817.3C532.848 817.3 535.628 818.22 537.428 820.06C539.268 821.9 540.188 824.76 540.188 828.64V844.9C540.188 846.58 539.448 847.42 537.968 847.42C536.408 847.42 535.628 846.58 535.628 844.9V841.96C534.868 843.68 533.688 845.04 532.088 846.04C530.528 847.04 528.688 847.54 526.568 847.54ZM527.348 843.88C529.748 843.88 531.708 843.06 533.228 841.42C534.748 839.74 535.508 837.62 535.508 835.06V833.26H533.648C530.408 833.26 527.848 833.42 525.968 833.74C524.128 834.02 522.828 834.54 522.068 835.3C521.348 836.02 520.988 837.02 520.988 838.3C520.988 839.94 521.548 841.28 522.668 842.32C523.828 843.36 525.388 843.88 527.348 843.88ZM294.511 929.54C291.631 929.54 288.911 929.2 286.351 928.52C283.831 927.8 281.651 926.76 279.811 925.4C279.171 924.96 278.791 924.44 278.671 923.84C278.551 923.24 278.611 922.68 278.851 922.16C279.131 921.64 279.531 921.3 280.051 921.14C280.571 920.94 281.171 921.06 281.851 921.5C283.651 922.82 285.571 923.76 287.611 924.32C289.651 924.88 291.951 925.16 294.511 925.16C298.111 925.16 300.771 924.5 302.491 923.18C304.251 921.82 305.131 920.04 305.131 917.84C305.131 916.08 304.491 914.68 303.211 913.64C301.971 912.6 299.871 911.78 296.911 911.18L290.671 909.92C286.911 909.12 284.091 907.82 282.211 906.02C280.371 904.18 279.451 901.74 279.451 898.7C279.451 896.18 280.091 893.98 281.371 892.1C282.691 890.22 284.511 888.76 286.831 887.72C289.151 886.68 291.831 886.16 294.871 886.16C297.391 886.16 299.731 886.52 301.891 887.24C304.091 887.92 306.071 888.96 307.831 890.36C308.391 890.8 308.711 891.32 308.791 891.92C308.911 892.48 308.831 893 308.551 893.48C308.271 893.96 307.871 894.28 307.351 894.44C306.831 894.56 306.211 894.4 305.491 893.96C303.891 892.72 302.211 891.84 300.451 891.32C298.731 890.8 296.851 890.54 294.811 890.54C291.651 890.54 289.131 891.28 287.251 892.76C285.371 894.2 284.431 896.12 284.431 898.52C284.431 900.44 285.011 901.96 286.171 903.08C287.371 904.2 289.311 905.02 291.991 905.54L298.231 906.86C302.271 907.7 305.251 908.98 307.171 910.7C309.131 912.38 310.111 914.68 310.111 917.6C310.111 919.96 309.471 922.04 308.191 923.84C306.951 925.64 305.151 927.04 302.791 928.04C300.471 929.04 297.711 929.54 294.511 929.54ZM319.485 940.22C317.885 940.22 317.085 939.4 317.085 937.76V901.88C317.085 900.24 317.865 899.42 319.425 899.42C321.065 899.42 321.885 900.24 321.885 901.88V905C322.725 903.24 324.025 901.86 325.785 900.86C327.545 899.82 329.565 899.3 331.845 899.3C334.445 899.3 336.705 899.92 338.625 901.16C340.585 902.36 342.085 904.1 343.125 906.38C344.205 908.62 344.745 911.3 344.745 914.42C344.745 917.5 344.205 920.18 343.125 922.46C342.085 924.7 340.585 926.44 338.625 927.68C336.705 928.92 334.445 929.54 331.845 929.54C329.605 929.54 327.605 929.04 325.845 928.04C324.085 927.04 322.785 925.66 321.945 923.9V937.76C321.945 939.4 321.125 940.22 319.485 940.22ZM330.825 925.64C333.545 925.64 335.725 924.68 337.365 922.76C339.005 920.8 339.825 918.02 339.825 914.42C339.825 910.78 339.005 908 337.365 906.08C335.725 904.16 333.545 903.2 330.825 903.2C328.105 903.2 325.925 904.16 324.285 906.08C322.645 908 321.825 910.78 321.825 914.42C321.825 918.02 322.645 920.8 324.285 922.76C325.925 924.68 328.105 925.64 330.825 925.64ZM354.526 929.42C352.886 929.42 352.066 928.58 352.066 926.9V901.88C352.066 900.24 352.846 899.42 354.406 899.42C356.006 899.42 356.806 900.24 356.806 901.88V905.06C357.606 903.22 358.846 901.82 360.526 900.86C362.206 899.86 364.206 899.32 366.526 899.24C367.806 899.12 368.486 899.76 368.566 901.16C368.686 902.56 367.966 903.34 366.406 903.5L365.446 903.62C362.686 903.86 360.586 904.74 359.146 906.26C357.706 907.74 356.986 909.78 356.986 912.38V926.9C356.986 928.58 356.166 929.42 354.526 929.42ZM386.358 929.54C381.758 929.54 378.118 928.2 375.438 925.52C372.758 922.8 371.418 919.12 371.418 914.48C371.418 911.48 372.018 908.84 373.218 906.56C374.418 904.24 376.058 902.46 378.138 901.22C380.258 899.94 382.698 899.3 385.458 899.3C389.418 899.3 392.518 900.58 394.758 903.14C396.998 905.66 398.118 909.14 398.118 913.58C398.118 914.82 397.418 915.44 396.018 915.44H376.158C376.318 918.76 377.278 921.3 379.038 923.06C380.798 924.78 383.238 925.64 386.358 925.64C387.678 925.64 389.018 925.48 390.378 925.16C391.738 924.8 393.058 924.18 394.338 923.3C395.258 922.7 396.018 922.58 396.618 922.94C397.258 923.3 397.578 923.86 397.578 924.62C397.618 925.34 397.218 925.98 396.378 926.54C395.058 927.5 393.478 928.24 391.638 928.76C389.838 929.28 388.078 929.54 386.358 929.54ZM385.578 902.9C382.818 902.9 380.638 903.76 379.038 905.48C377.438 907.2 376.498 909.46 376.218 912.26H393.918C393.798 909.3 393.018 907 391.578 905.36C390.178 903.72 388.178 902.9 385.578 902.9ZM414.332 929.54C412.332 929.54 410.532 929.16 408.932 928.4C407.372 927.6 406.132 926.52 405.212 925.16C404.292 923.8 403.832 922.28 403.832 920.6C403.832 918.48 404.372 916.8 405.452 915.56C406.572 914.32 408.392 913.44 410.912 912.92C413.472 912.36 416.952 912.08 421.352 912.08H423.272V910.22C423.272 907.74 422.752 905.96 421.712 904.88C420.712 903.76 419.092 903.2 416.852 903.2C415.452 903.2 414.032 903.38 412.592 903.74C411.192 904.1 409.732 904.68 408.212 905.48C407.532 905.84 406.952 905.92 406.472 905.72C406.032 905.48 405.712 905.12 405.512 904.64C405.352 904.12 405.352 903.6 405.512 903.08C405.712 902.52 406.112 902.1 406.712 901.82C408.432 900.94 410.152 900.3 411.872 899.9C413.632 899.5 415.292 899.3 416.852 899.3C420.612 899.3 423.392 900.22 425.192 902.06C427.032 903.9 427.952 906.76 427.952 910.64V926.9C427.952 928.58 427.212 929.42 425.732 929.42C424.172 929.42 423.392 928.58 423.392 926.9V923.96C422.632 925.68 421.452 927.04 419.852 928.04C418.292 929.04 416.452 929.54 414.332 929.54ZM415.112 925.88C417.512 925.88 419.472 925.06 420.992 923.42C422.512 921.74 423.272 919.62 423.272 917.06V915.26H421.412C418.172 915.26 415.612 915.42 413.732 915.74C411.892 916.02 410.592 916.54 409.832 917.3C409.112 918.02 408.752 919.02 408.752 920.3C408.752 921.94 409.312 923.28 410.432 924.32C411.592 925.36 413.152 925.88 415.112 925.88ZM448.068 929.54C445.468 929.54 443.188 928.92 441.228 927.68C439.308 926.44 437.808 924.7 436.728 922.46C435.688 920.18 435.168 917.5 435.168 914.42C435.168 911.3 435.688 908.62 436.728 906.38C437.808 904.1 439.308 902.36 441.228 901.16C443.188 899.92 445.468 899.3 448.068 899.3C450.348 899.3 452.348 899.8 454.068 900.8C455.828 901.8 457.128 903.18 457.968 904.94V888.74C457.968 887.1 458.788 886.28 460.428 886.28C462.028 886.28 462.828 887.1 462.828 888.74V926.9C462.828 928.58 462.028 929.42 460.428 929.42C458.828 929.42 458.028 928.58 458.028 926.9V923.78C457.148 925.58 455.828 927 454.068 928.04C452.348 929.04 450.348 929.54 448.068 929.54ZM449.088 925.64C451.808 925.64 453.988 924.68 455.628 922.76C457.268 920.8 458.088 918.02 458.088 914.42C458.088 910.78 457.268 908 455.628 906.08C453.988 904.16 451.808 903.2 449.088 903.2C446.328 903.2 444.128 904.16 442.488 906.08C440.888 908 440.088 910.78 440.088 914.42C440.088 918.02 440.888 920.8 442.488 922.76C444.128 924.68 446.328 925.64 449.088 925.64Z" fill="white"/>
<defs>
<linearGradient id="paint0_linear_0_1" x1="372" y1="345" x2="372" y2="688" gradientUnits="userSpaceOnUse">
<stop/>
<stop offset="0.0001" stop-color="#009B78"/>
<stop offset="1" stop-color="white"/>
</linearGradient>
<linearGradient id="paint1_linear_0_1" x1="372" y1="602.25" x2="372" y2="645.125" gradientUnits="userSpaceOnUse">
<stop/>
<stop offset="0.0001" stop-color="#009B78"/>
<stop offset="1" stop-color="white"/>
</linearGradient>
<clipPath id="clip0_0_1">
<rect width="288" height="343" fill="white" transform="translate(228 345)"/>
</clipPath>
</defs>
</svg>
