<svg width="147" height="37" viewBox="0 0 147 37" fill="none" xmlns="http://www.w3.org/2000/svg">
<g filter="url(#filter0_d_122_1503)">
<path d="M26.737 28.2591V25.2812H25.5632V24.9121H28.2652V25.2837H27.0958V28.2617L26.737 28.2591Z" fill="white"/>
<path d="M33.2581 28.2578L32.2508 26.9551H31.2736V28.2578H30.9104V24.9108H32.4467C32.6273 24.9077 32.8064 24.9493 32.972 25.0327C33.122 25.1085 33.2515 25.2295 33.3469 25.3831C33.4438 25.5441 33.4934 25.7366 33.4885 25.9325C33.4911 26.1019 33.4546 26.269 33.3828 26.4167C33.3132 26.5544 33.2158 26.6705 33.0989 26.7553C32.9729 26.8448 32.8332 26.9051 32.6873 26.9331L33.6888 28.2595L33.2581 28.2578ZM32.7834 26.5132C32.8817 26.4706 32.9675 26.3966 33.0307 26.2999C33.0962 26.1921 33.1289 26.0624 33.1238 25.9308C33.1286 25.7991 33.0959 25.6692 33.0307 25.5609C32.9673 25.4646 32.8816 25.3909 32.7834 25.3485C32.6756 25.3027 32.5615 25.2797 32.4467 25.2807H31.2728V26.5835H32.4467C32.5618 26.5848 32.676 26.561 32.7834 26.5132Z" fill="white"/>
<path d="M39.0514 28.2577L38.7294 27.5136H36.8257L36.5014 28.2577H36.0898L37.5959 24.9106H37.9591L39.463 28.2602L39.0514 28.2577ZM37.7764 25.3246L36.9856 27.142H38.5665L37.7764 25.3246Z" fill="white"/>
<path d="M44.3712 28.2577L42.1578 25.4642V28.2577H41.7947V24.9106H42.1578L44.3712 27.7041V24.9106H44.7344V28.2602L44.3712 28.2577Z" fill="white"/>
<path d="M47.9816 28.235C47.8355 28.2007 47.6929 28.1487 47.5561 28.0801C47.4554 28.0314 47.3607 27.9676 47.2744 27.8905V27.4368C47.368 27.5253 47.4708 27.6001 47.5803 27.6594C47.7244 27.7403 47.875 27.8047 48.03 27.8516C48.2001 27.9031 48.3752 27.929 48.5509 27.9286C48.8016 27.9407 49.0517 27.8914 49.2846 27.7838C49.4651 27.6882 49.5538 27.5638 49.5538 27.4148C49.5539 27.3773 49.5475 27.34 49.5349 27.3054C49.5223 27.2708 49.5038 27.2395 49.4805 27.2133C49.4194 27.1439 49.3487 27.0867 49.2714 27.044C49.1731 26.9903 49.0722 26.9434 48.9691 26.9035C48.8554 26.8586 48.7358 26.8146 48.6126 26.7697C48.4563 26.7156 48.3044 26.6571 48.1526 26.6004C48.0093 26.5437 47.8704 26.4732 47.7373 26.3896C47.6226 26.3211 47.5201 26.2284 47.4351 26.1162C47.3603 26.0134 47.3199 25.8831 47.3213 25.7489C47.322 25.5785 47.3811 25.4154 47.4857 25.2951C47.613 25.1467 47.7696 25.0361 47.942 24.9726C48.1606 24.8907 48.3894 24.8513 48.6192 24.8558C48.7866 24.853 48.9538 24.8703 49.1181 24.9074C49.2468 24.9386 49.3724 24.9849 49.4929 25.0454C49.5955 25.098 49.695 25.1582 49.7908 25.2257V25.6489L49.6954 25.5838C49.6106 25.5309 49.5234 25.4831 49.4342 25.4407C49.3119 25.3814 49.1858 25.3327 49.0572 25.2951C48.9121 25.2525 48.763 25.2312 48.6133 25.2316C48.4487 25.2282 48.2843 25.2501 48.1247 25.2968C48.0074 25.3261 47.8969 25.3838 47.8004 25.4662C47.7671 25.4909 47.7392 25.5242 47.7191 25.5636C47.6989 25.6031 47.6871 25.6473 47.6845 25.693C47.6846 25.7295 47.6912 25.7656 47.7038 25.7991C47.7164 25.8326 47.7348 25.8627 47.7579 25.8877C47.8175 25.9542 47.8868 26.008 47.9626 26.0468C48.0577 26.1001 48.1557 26.1462 48.256 26.1848C48.3653 26.2288 48.4834 26.2695 48.6045 26.316C48.7608 26.3693 48.917 26.4286 49.0711 26.4913C49.217 26.5512 49.3588 26.6239 49.4951 26.7088C49.6132 26.7817 49.7184 26.8793 49.8055 26.9966C49.8829 27.1042 49.9245 27.2402 49.9228 27.3801C49.9224 27.5195 49.8884 27.6561 49.8247 27.7746C49.7609 27.8931 49.67 27.9889 49.5619 28.0513C49.2478 28.2366 48.8966 28.3222 48.5444 28.2994C48.3553 28.3016 48.1666 28.28 47.9816 28.235Z" fill="white"/>
<path d="M52.4641 28.2578V24.9107H54.0003C54.1824 24.9081 54.3622 24.9579 54.5234 25.0555C54.6773 25.1475 54.8074 25.2847 54.9005 25.4533C54.9922 25.6262 55.0407 25.825 55.0407 26.0277C55.0407 26.2304 54.9922 26.4291 54.9005 26.602C54.8068 26.7701 54.6769 26.9073 54.5234 26.9999C54.3621 27.0974 54.1824 27.1471 54.0003 27.1446H52.8265V28.2603L52.4641 28.2578ZM54.3371 26.6765C54.4383 26.6173 54.5238 26.5275 54.5843 26.4167C54.6484 26.2992 54.6807 26.1626 54.6775 26.0239C54.6808 25.8857 54.6484 25.7496 54.5843 25.6328C54.5237 25.5221 54.4383 25.4323 54.3371 25.3729C54.2333 25.3098 54.1176 25.2775 54.0003 25.279H52.8265V26.7663H54.0003C54.1172 26.768 54.2327 26.7372 54.3371 26.6765Z" fill="white"/>
<path d="M58.4206 28.1633C58.2254 28.0821 58.0467 27.9556 57.8953 27.7917C57.7553 27.6378 57.6455 27.4511 57.5733 27.2441C57.4274 26.8138 57.4274 26.336 57.5733 25.9057C57.6468 25.6986 57.7572 25.5117 57.8975 25.3572C58.0489 25.1937 58.2276 25.0678 58.4228 24.9873C58.8883 24.8096 59.3909 24.8096 59.8564 24.9873C60.0518 25.0672 60.2307 25.1932 60.3817 25.3572C60.5213 25.5122 60.631 25.6994 60.7037 25.9066C60.8498 26.3367 60.8498 26.8147 60.7037 27.2449C60.6315 27.4519 60.5217 27.6387 60.3817 27.7926C60.2307 27.957 60.0518 28.0835 59.8564 28.1642C59.391 28.3421 58.8882 28.3421 58.4228 28.1642L58.4206 28.1633ZM59.8519 27.7401C60.036 27.629 60.1887 27.4595 60.2921 27.2516C60.3916 27.0444 60.4437 26.8114 60.4437 26.5745C60.4437 26.3376 60.3916 26.1045 60.2921 25.8973C60.1888 25.6891 60.0361 25.5194 59.8519 25.408C59.6281 25.2878 59.3843 25.2255 59.1374 25.2255C58.8905 25.2255 58.6466 25.2878 58.4228 25.408C58.2374 25.5187 58.0833 25.6886 57.979 25.8973C57.8796 26.1046 57.8275 26.3376 57.8275 26.5745C57.8275 26.8114 57.8796 27.0444 57.979 27.2516C58.0834 27.4601 58.2375 27.6296 58.4228 27.7401C58.6466 27.8604 58.8905 27.9227 59.1374 27.9227C59.3843 27.9227 59.6281 27.8604 59.8519 27.7401Z" fill="white"/>
<path d="M65.6946 28.2579L64.6874 26.9551H63.7102V28.2579H63.347V24.9108H64.8832C65.0639 24.9077 65.243 24.9493 65.4085 25.0327C65.5585 25.1085 65.688 25.2295 65.7834 25.3831C65.8806 25.5439 65.9305 25.7365 65.9257 25.9325C65.9284 26.1019 65.8919 26.269 65.8201 26.4167C65.7505 26.5544 65.6531 26.6706 65.5362 26.7553C65.4103 26.8448 65.2705 26.9051 65.1246 26.9331L66.126 28.2596L65.6946 28.2579ZM65.2207 26.5132C65.319 26.4706 65.4047 26.3966 65.4679 26.2999C65.5337 26.1922 65.5665 26.0624 65.5611 25.9309C65.566 25.7991 65.5332 25.6692 65.4679 25.5609C65.4046 25.4646 65.3189 25.3909 65.2207 25.3485C65.1129 25.3027 64.9989 25.2797 64.884 25.2807H63.7102V26.5835H64.884C64.9988 26.5847 65.1128 26.5609 65.22 26.5132H65.2207Z" fill="white"/>
<path d="M69.5397 28.2577V25.2797H68.3702V24.9106H71.0723V25.2823H69.9028V28.2602L69.5397 28.2577Z" fill="white"/>
<path d="M77.7447 28.235C77.5986 28.2007 77.4559 28.1487 77.3192 28.0801C77.2185 28.0314 77.1238 27.9676 77.0375 27.8905V27.4368C77.1311 27.5253 77.2338 27.6001 77.3434 27.6594C77.4875 27.7402 77.6381 27.8046 77.7931 27.8516C77.9631 27.903 78.1382 27.9289 78.314 27.9286C78.5647 27.9407 78.8147 27.8914 79.0477 27.7838C79.2281 27.6882 79.3169 27.5638 79.3169 27.4148C79.3171 27.3772 79.3106 27.34 79.298 27.3054C79.2854 27.2708 79.2669 27.2395 79.2435 27.2133C79.1824 27.1439 79.1118 27.0867 79.0345 27.044C78.9362 26.9902 78.8353 26.9434 78.7322 26.9035C78.6185 26.8586 78.4989 26.8146 78.3756 26.7697C78.2194 26.7156 78.0675 26.6571 77.9149 26.6004C77.7716 26.5437 77.6328 26.4731 77.4997 26.3896C77.385 26.3211 77.2824 26.2284 77.1974 26.1162C77.1225 26.0135 77.0822 25.8831 77.0837 25.7489C77.0842 25.5785 77.1433 25.4153 77.248 25.2951C77.3753 25.1467 77.5319 25.0361 77.7044 24.9726C77.9229 24.8907 78.1517 24.8513 78.3815 24.8558C78.5489 24.853 78.7161 24.8703 78.8804 24.9074C79.0091 24.9386 79.1347 24.9849 79.2553 25.0454C79.3579 25.098 79.4573 25.1582 79.5531 25.2257V25.6489L79.4578 25.5838C79.3727 25.5308 79.2853 25.4831 79.1958 25.4407C79.0735 25.3814 78.9474 25.3327 78.8188 25.2951C78.6737 25.2525 78.5246 25.2312 78.3749 25.2316C78.2103 25.2282 78.0459 25.2502 77.8863 25.2968C77.769 25.3261 77.6584 25.3838 77.562 25.4662C77.5286 25.4908 77.5007 25.5242 77.4806 25.5636C77.4604 25.603 77.4486 25.6473 77.4461 25.693C77.4462 25.7295 77.4528 25.7656 77.4654 25.7991C77.478 25.8326 77.4964 25.8627 77.5195 25.8877C77.5791 25.9541 77.6484 26.008 77.7242 26.0468C77.8193 26.1001 77.9173 26.1462 78.0176 26.1848C78.1269 26.2288 78.245 26.2695 78.3661 26.316C78.5224 26.3693 78.6779 26.4286 78.832 26.4913C78.9777 26.5512 79.1192 26.6239 79.2553 26.7088C79.3733 26.7817 79.4785 26.8793 79.5656 26.9966C79.6431 27.1042 79.6847 27.2402 79.683 27.3801C79.6825 27.5195 79.6485 27.6561 79.5848 27.7746C79.5211 27.8931 79.4301 27.9889 79.3221 28.0513C79.0079 28.2366 78.6567 28.3222 78.3045 28.2994C78.1164 28.3014 77.9287 28.2798 77.7447 28.235Z" fill="white"/>
<path d="M83.0768 28.1632C82.8818 28.082 82.7033 27.9555 82.5522 27.7916C82.4118 27.6379 82.3017 27.4511 82.2294 27.2439C82.0834 26.8137 82.0834 26.3358 82.2294 25.9056C82.3022 25.6983 82.4122 25.5111 82.5522 25.3563C82.7033 25.1928 82.8818 25.0669 83.0768 24.9864C83.5422 24.8086 84.0449 24.8086 84.5103 24.9864C84.7058 25.0663 84.8846 25.1923 85.0356 25.3563C85.1755 25.5112 85.2855 25.6984 85.3584 25.9056C85.5041 26.3359 85.5041 26.8137 85.3584 27.2439C85.286 27.451 85.1759 27.6378 85.0356 27.7916C84.8846 27.956 84.7058 28.0826 84.5103 28.1632C84.0449 28.3412 83.5422 28.3412 83.0768 28.1632ZM84.5081 27.74C84.6934 27.6294 84.8475 27.4599 84.952 27.2515C85.0514 27.0442 85.1035 26.8112 85.1035 26.5744C85.1035 26.3375 85.0514 26.1045 84.952 25.8972C84.8476 25.6885 84.6935 25.5187 84.5081 25.4079C84.2843 25.2877 84.0404 25.2254 83.7935 25.2254C83.5466 25.2254 83.3027 25.2877 83.0789 25.4079C82.8934 25.5185 82.7393 25.6884 82.6351 25.8972C82.5355 26.1044 82.4833 26.3374 82.4833 26.5744C82.4833 26.8113 82.5355 27.0443 82.6351 27.2515C82.7394 27.46 82.8935 27.6296 83.0789 27.74C83.3027 27.8603 83.5466 27.9227 83.7935 27.9227C84.0404 27.9227 84.2843 27.8603 84.5081 27.74Z" fill="white"/>
<path d="M88.0116 28.2577V24.9106H88.3748V27.8886H90.3513V28.2602L88.0116 28.2577Z" fill="white"/>
<path d="M92.969 27.7899C92.7692 27.4279 92.6741 27.0019 92.6976 26.5735V24.9009H93.0608V26.5761C93.0598 26.7516 93.0718 26.9269 93.0967 27.1001C93.1174 27.2536 93.166 27.4004 93.2391 27.5309C93.3121 27.6587 93.4156 27.7595 93.5369 27.8213C93.8684 27.9625 94.2326 27.9625 94.564 27.8213C94.6854 27.7595 94.7889 27.6587 94.8619 27.5309C94.9347 27.4003 94.9829 27.2535 95.0035 27.1001C95.0287 26.9269 95.041 26.7517 95.0402 26.5761V24.9009H95.4034V26.5761C95.4265 27.0045 95.3315 27.4303 95.1319 27.7925C94.8427 28.1166 94.4555 28.2979 94.0524 28.2979C93.6492 28.2979 93.2619 28.1166 92.9727 27.7925L92.969 27.7899Z" fill="white"/>
<path d="M99.1118 28.2577V25.2797H97.9424V24.9106H100.644V25.2823H99.475V28.2602L99.1118 28.2577Z" fill="white"/>
<path d="M102.915 28.2577V24.9106H103.278V28.2602L102.915 28.2577Z" fill="white"/>
<path d="M106.88 28.1632C106.685 28.082 106.506 27.9555 106.355 27.7916C106.215 27.6378 106.105 27.451 106.033 27.2439C105.887 26.8138 105.887 26.3358 106.033 25.9056C106.105 25.6983 106.215 25.5111 106.355 25.3562C106.506 25.1927 106.685 25.0668 106.88 24.9863C107.111 24.8935 107.354 24.8485 107.598 24.8534C107.841 24.8482 108.083 24.8932 108.313 24.9863C108.508 25.0662 108.687 25.1922 108.838 25.3562C108.978 25.5112 109.088 25.6984 109.161 25.9056C109.307 26.3359 109.307 26.8137 109.161 27.2439C109.089 27.451 108.978 27.6377 108.838 27.7916C108.687 27.956 108.508 28.0826 108.313 28.1632C108.083 28.2566 107.841 28.3019 107.598 28.297C107.354 28.3017 107.111 28.2564 106.88 28.1632ZM108.311 27.74C108.497 27.6294 108.651 27.4599 108.755 27.2515C108.855 27.0442 108.907 26.8112 108.907 26.5743C108.907 26.3374 108.855 26.1044 108.755 25.8971C108.651 25.6885 108.497 25.5187 108.311 25.4079C108.088 25.2877 107.844 25.2254 107.597 25.2254C107.35 25.2254 107.106 25.2877 106.882 25.4079C106.697 25.5185 106.543 25.6884 106.439 25.8971C106.339 26.1044 106.287 26.3374 106.287 26.5743C106.287 26.8112 106.339 27.0442 106.439 27.2515C106.543 27.46 106.697 27.6295 106.882 27.74C107.106 27.8603 107.35 27.9227 107.597 27.9227C107.844 27.9227 108.088 27.8603 108.311 27.74Z" fill="white"/>
<path d="M114.492 28.2577L112.279 25.4642V28.2577H111.916V24.9106H112.279L114.492 27.7041V24.9106H114.856V28.2602L114.492 28.2577Z" fill="white"/>
<path d="M118.206 28.235C118.06 28.2006 117.918 28.1487 117.781 28.0801C117.68 28.0313 117.585 27.9675 117.499 27.8905V27.4368C117.593 27.5252 117.696 27.6 117.806 27.6594C117.95 27.7403 118.1 27.8047 118.255 27.8516C118.425 27.9031 118.6 27.929 118.776 27.9286C119.027 27.9408 119.277 27.8914 119.51 27.7838C119.69 27.6882 119.78 27.5638 119.78 27.4148C119.78 27.3773 119.774 27.34 119.761 27.3054C119.748 27.2708 119.73 27.2395 119.707 27.2133C119.645 27.144 119.575 27.0868 119.497 27.044C119.399 26.9903 119.298 26.9434 119.195 26.9035C119.081 26.8586 118.962 26.8146 118.839 26.7697C118.682 26.7156 118.531 26.6571 118.379 26.6004C118.235 26.5437 118.097 26.4731 117.963 26.3896C117.849 26.3211 117.746 26.2283 117.661 26.1162C117.586 26.0135 117.546 25.8831 117.547 25.7489C117.548 25.5785 117.607 25.4154 117.712 25.2951C117.839 25.1467 117.996 25.0361 118.168 24.9726C118.387 24.8907 118.615 24.8513 118.845 24.8558C119.013 24.853 119.18 24.8703 119.344 24.9074C119.473 24.9386 119.598 24.9849 119.719 25.0454C119.822 25.0979 119.921 25.1581 120.017 25.2257V25.6489L119.922 25.5838C119.837 25.5309 119.75 25.4832 119.66 25.4407C119.538 25.3814 119.412 25.3327 119.283 25.2951C119.139 25.2528 118.992 25.2315 118.843 25.2316C118.678 25.2282 118.514 25.2501 118.354 25.2968C118.237 25.326 118.126 25.3837 118.029 25.4662C117.996 25.4909 117.969 25.5244 117.949 25.5638C117.929 25.6032 117.917 25.6474 117.914 25.693C117.914 25.7295 117.921 25.7656 117.933 25.7991C117.946 25.8326 117.965 25.8627 117.988 25.8877C118.047 25.9542 118.117 26.008 118.192 26.0468C118.287 26.1001 118.385 26.1462 118.486 26.1848C118.595 26.2288 118.713 26.2695 118.834 26.316C118.991 26.3693 119.146 26.4286 119.3 26.4913C119.446 26.5512 119.588 26.6239 119.724 26.7088C119.842 26.7817 119.947 26.8793 120.034 26.9966C120.111 27.1042 120.153 27.2402 120.151 27.3801C120.151 27.5195 120.117 27.6561 120.053 27.7746C119.989 27.8931 119.898 27.9889 119.79 28.0513C119.476 28.2367 119.124 28.3223 118.772 28.2994C118.582 28.3019 118.392 28.2803 118.206 28.235Z" fill="white"/>
<path d="M17.4062 8.23026C16.6013 7.8404 15.7713 7.50891 14.9222 7.23816C14.0593 6.96305 13.1613 6.70063 12.2609 6.45938L11.9635 6.37472C11.3768 6.20542 10.8195 6.05136 10.2958 5.88544C9.74597 5.72103 9.20602 5.52319 8.67871 5.29291C8.3167 5.15096 7.97944 4.94882 7.68022 4.69443C7.61656 4.64908 7.56398 4.58897 7.52668 4.51887C7.48937 4.44878 7.46837 4.37062 7.46532 4.29064C7.46532 4.10864 7.6843 3.91481 7.87387 3.78276C8.37545 3.45771 8.93188 3.23395 9.51379 3.12332C10.3795 2.92648 11.2644 2.83502 12.1506 2.85075C12.955 2.84815 13.7572 2.93673 14.543 3.11487C15.2435 3.27273 15.9331 3.47889 16.607 3.73197C17.2509 3.9783 17.7052 4.17044 18.0247 4.33127L18.5648 4.61993C18.653 4.66694 18.7513 4.68969 18.8504 4.68599C18.9495 4.68229 19.046 4.65226 19.1306 4.5988C19.2153 4.54534 19.2853 4.47026 19.3338 4.38072C19.3824 4.29118 19.408 4.1902 19.4081 4.08749V2.23112C19.4081 2.12297 19.3799 2.01682 19.3264 1.92396C19.2728 1.83111 19.196 1.75498 19.1041 1.70374C18.5351 1.39197 17.9484 1.11609 17.3473 0.87757C16.6243 0.595919 15.8783 0.382305 15.1183 0.239312C14.1495 0.0677005 13.1676 -0.0119236 12.1849 0.00144096C10.8302 -0.0181553 9.47988 0.164313 8.17538 0.543212C7.1392 0.836827 6.17997 1.36797 5.36863 2.09738C5.02322 2.39704 4.74438 2.77047 4.55117 3.19211C4.35797 3.61376 4.25496 4.07366 4.24921 4.54036C4.24817 4.91832 4.31901 5.29278 4.45766 5.64238C4.59632 5.99198 4.80008 6.30988 5.05732 6.5779C5.60198 7.13402 6.2385 7.58442 6.93665 7.90773C7.72517 8.29114 8.5405 8.61232 9.3757 8.86852C10.4101 9.19019 11.2215 9.42719 12.001 9.63628C12.756 9.84705 13.4138 10.0384 14.0119 10.2204C14.5688 10.3877 15.1168 10.5855 15.6535 10.8129C16.0297 10.9689 16.3805 11.1839 16.6936 11.4503C16.7633 11.4984 16.821 11.5627 16.8622 11.6381C16.9034 11.7136 16.9268 11.798 16.9306 11.8846C16.9306 12.3739 16.2965 12.7379 15.7654 12.9579C14.4955 13.4047 13.1574 13.6069 11.8172 13.5547C10.8666 13.5567 9.91872 13.4477 8.99166 13.2297C8.15308 13.034 7.3328 12.7621 6.54036 12.417C5.96953 12.1791 5.42696 11.8741 4.92331 11.5079C4.83741 11.4414 4.73535 11.4011 4.62855 11.3913C4.52175 11.3815 4.41443 11.4027 4.31861 11.4525C4.22278 11.5023 4.14222 11.5788 4.08595 11.6733C4.02969 11.7679 3.99992 11.8768 4 11.9879V13.989C4.00027 14.0846 4.02267 14.1788 4.06532 14.2637C4.10797 14.3485 4.16962 14.4215 4.24512 14.4766C4.78302 14.8509 5.36313 15.1556 5.97248 15.384C6.78756 15.6996 7.62888 15.9371 8.48587 16.0934C9.568 16.2959 10.6661 16.3926 11.7657 16.382C13.8374 16.4869 15.9041 16.0898 17.8016 15.2223C19.7529 14.1837 20.1622 12.7497 20.1622 11.7297C20.165 11.3395 20.0932 10.9525 19.9512 10.5911C19.8091 10.2297 19.5996 9.90087 19.3345 9.62359C18.7772 9.04353 18.1241 8.57163 17.4062 8.23026Z" fill="white"/>
<path d="M40.2341 0.943525C39.226 0.472932 38.131 0.235751 37.0253 0.248538H28.3102C28.157 0.248538 28.0101 0.311579 27.9017 0.423815C27.7934 0.536051 27.7325 0.688287 27.7325 0.847013V15.6184C27.7325 15.7771 27.7934 15.9294 27.9017 16.0416C28.0101 16.1538 28.157 16.2169 28.3102 16.2169H30.3685C30.5217 16.2169 30.6686 16.1538 30.777 16.0416C30.8853 15.9294 30.9462 15.7771 30.9462 15.6184V11.297H37.0253C38.1316 11.3098 39.2272 11.0723 40.2357 10.6012C41.1661 10.1703 41.9764 9.50294 42.5914 8.66103C43.1805 7.82185 43.4979 6.81087 43.4979 5.7732C43.4979 4.73554 43.1805 3.72456 42.5914 2.88537C41.9796 2.0391 41.1678 1.37035 40.2341 0.943525ZM37.0253 8.44941H30.9462V3.08599H37.0253C37.6025 3.07744 38.1745 3.20086 38.7004 3.44745C39.1677 3.65382 39.5738 3.98509 39.877 4.40738C40.1578 4.79992 40.3018 5.27944 40.2856 5.7677C40.3011 6.26123 40.1551 6.74572 39.8713 7.14243C39.5687 7.56298 39.1638 7.89278 38.6979 8.09813C38.1707 8.33657 37.6006 8.45629 37.0253 8.44941Z" fill="white"/>
<path d="M62.9083 10.1207C63.4126 9.97001 63.9003 9.76519 64.3635 9.50956C65.0882 9.1053 65.7086 8.52672 66.1726 7.82248C66.6374 7.09087 66.8793 6.23152 66.8671 5.35578C66.8902 4.3356 66.5584 3.34086 65.9324 2.55304C65.301 1.77571 64.486 1.18106 63.5668 0.827032C62.5483 0.431594 61.4677 0.235823 60.3801 0.249714H51.6641C51.5109 0.249714 51.364 0.312756 51.2556 0.424992C51.1473 0.537227 51.0864 0.689464 51.0864 0.848189V15.6196C51.0864 15.7783 51.1473 15.9305 51.2556 16.0428C51.364 16.155 51.5109 16.2181 51.6641 16.2181H53.7224C53.8756 16.2181 54.0225 16.155 54.1309 16.0428C54.2392 15.9305 54.3001 15.7783 54.3001 15.6196V10.4729H59.0295L64.5751 16.0488C64.683 16.1574 64.8275 16.2181 64.978 16.2181H67.4293C67.5439 16.2184 67.656 16.1835 67.7514 16.1176C67.8468 16.0518 67.9211 15.958 67.9649 15.8483C68.0087 15.7386 68.02 15.6178 67.9974 15.5014C67.9747 15.385 67.9192 15.2783 67.8378 15.1946L62.9083 10.1207ZM54.3009 3.08632H60.3801C60.9646 3.08081 61.5462 3.17109 62.1034 3.35382C62.5455 3.49615 62.9424 3.75933 63.2522 4.11566C63.5054 4.47509 63.6423 4.90833 63.6431 5.35327C63.644 5.79822 63.5089 6.23201 63.2571 6.59251C62.9457 6.94932 62.5471 7.21253 62.1034 7.35438C61.5481 7.54517 60.966 7.639 60.381 7.63204H54.3017L54.3009 3.08632Z" fill="white"/>
<path d="M89.4311 13.3806H78.799V9.64757H87.8328C87.986 9.64757 88.133 9.58452 88.2413 9.47229C88.3497 9.36005 88.4105 9.20782 88.4105 9.04909V7.40859C88.4105 7.24986 88.3497 7.09763 88.2413 6.98539C88.133 6.87315 87.986 6.81011 87.8328 6.81011H78.799V3.08553H88.9711C89.1243 3.08553 89.2712 3.02246 89.3795 2.91022C89.4878 2.79799 89.5487 2.64578 89.5487 2.48705V0.846522C89.5487 0.687796 89.4878 0.535586 89.3795 0.42335C89.2712 0.311114 89.1243 0.248047 88.9711 0.248047H76.163C76.0098 0.248047 75.8629 0.311114 75.7545 0.42335C75.6462 0.535586 75.5853 0.687796 75.5853 0.846522V15.6179C75.5853 15.7767 75.6462 15.9289 75.7545 16.0411C75.8629 16.1533 76.0098 16.2164 76.163 16.2164H89.4311C89.5843 16.2164 89.7312 16.1533 89.8396 16.0411C89.9479 15.9289 90.0087 15.7767 90.0087 15.6179V13.9782C90.0085 13.8197 89.9476 13.6677 89.8393 13.5556C89.731 13.4436 89.5841 13.3806 89.4311 13.3806Z" fill="white"/>
<path d="M108.878 0.539726C108.827 0.450952 108.754 0.377478 108.667 0.326448C108.58 0.275417 108.482 0.248574 108.382 0.248535H106.324C106.224 0.248574 106.126 0.275417 106.039 0.326448C105.952 0.377478 105.879 0.450952 105.828 0.539726L97.2849 15.3111C97.2323 15.402 97.2039 15.5057 97.2026 15.6117C97.2013 15.7177 97.2271 15.8221 97.2776 15.9143C97.328 16.0066 97.4013 16.0833 97.4897 16.1366C97.5782 16.1899 97.6787 16.2179 97.781 16.2177H100.115C100.216 16.2178 100.315 16.1904 100.403 16.1381C100.491 16.0858 100.564 16.0105 100.615 15.9198L102.287 12.9375H112.419L114.081 15.9181C114.131 16.0092 114.204 16.0849 114.292 16.1375C114.38 16.1901 114.48 16.2178 114.581 16.2177H116.915C117.017 16.2176 117.118 16.1894 117.206 16.1361C117.294 16.0827 117.367 16.0061 117.418 15.9139C117.468 15.8218 117.494 15.7175 117.493 15.6116C117.492 15.5057 117.463 15.4021 117.411 15.3111L108.878 0.539726ZM110.828 10.0992H103.867L107.348 3.87664L110.828 10.0992Z" fill="white"/>
<path d="M140.223 2.24288C138.492 0.919798 136.009 0.248535 132.844 0.248535H125.6C125.447 0.248535 125.3 0.311577 125.192 0.423813C125.083 0.536048 125.022 0.688285 125.022 0.84701V15.6184C125.022 15.7771 125.083 15.9294 125.192 16.0416C125.3 16.1538 125.447 16.2169 125.6 16.2169H132.844C136.015 16.2169 138.498 15.5397 140.225 14.2107C141.066 13.4754 141.741 12.559 142.205 11.5254C142.668 10.4918 142.908 9.36597 142.908 8.22636C142.908 7.08675 142.668 5.96088 142.205 4.92729C141.741 3.89371 141.066 2.97731 140.225 2.24205L140.223 2.24288ZM136.709 12.8326C135.457 13.2254 134.153 13.41 132.845 13.3794H128.238V3.08599H132.845C134.154 3.04806 135.46 3.23309 136.711 3.63368C137.607 3.89961 138.393 4.46506 138.947 5.24202C139.436 6.15611 139.693 7.18393 139.693 8.22889C139.693 9.27386 139.436 10.3017 138.947 11.2158C138.389 11.9909 137.604 12.558 136.708 12.8326H136.709Z" fill="white"/>
</g>
<defs>
<filter id="filter0_d_122_1503" x="0" y="0" width="146.908" height="36.3032" filterUnits="userSpaceOnUse" color-interpolation-filters="sRGB">
<feFlood flood-opacity="0" result="BackgroundImageFix"/>
<feColorMatrix in="SourceAlpha" type="matrix" values="0 0 0 0 0 0 0 0 0 0 0 0 0 0 0 0 0 0 127 0" result="hardAlpha"/>
<feOffset dy="4"/>
<feGaussianBlur stdDeviation="2"/>
<feComposite in2="hardAlpha" operator="out"/>
<feColorMatrix type="matrix" values="0 0 0 0 0 0 0 0 0 0 0 0 0 0 0 0 0 0 0.25 0"/>
<feBlend mode="normal" in2="BackgroundImageFix" result="effect1_dropShadow_122_1503"/>
<feBlend mode="normal" in="SourceGraphic" in2="effect1_dropShadow_122_1503" result="shape"/>
</filter>
</defs>
</svg>
