<svg width="128" height="33" viewBox="0 0 128 33" fill="none" xmlns="http://www.w3.org/2000/svg">
<g filter="url(#filter0_d_126_2012)">
<path d="M23.6422 24.411V21.8383H22.6282V21.5195H24.9624V21.8406H23.9521V24.4132L23.6422 24.411Z" fill="#009B78"/>
<path d="M29.2759 24.4101L28.4057 23.2847H27.5615V24.4101H27.2478V21.5187H28.575C28.731 21.516 28.8857 21.5519 29.0288 21.624C29.1584 21.6895 29.2702 21.794 29.3526 21.9267C29.4364 22.0658 29.4792 22.2321 29.4749 22.4013C29.4772 22.5476 29.4457 22.692 29.3837 22.8196C29.3236 22.9385 29.2394 23.0389 29.1384 23.1122C29.0296 23.1894 28.9089 23.2415 28.7829 23.2657L29.648 24.4116L29.2759 24.4101ZM28.8659 22.903C28.9508 22.8662 29.0249 22.8023 29.0795 22.7187C29.136 22.6256 29.1643 22.5135 29.16 22.3999C29.1641 22.2861 29.1358 22.1738 29.0795 22.0803C29.0247 21.9971 28.9507 21.9334 28.8659 21.8968C28.7727 21.8572 28.6742 21.8374 28.575 21.8383H27.5609V22.9637H28.575C28.6744 22.9649 28.7731 22.9443 28.8659 22.903V22.903Z" fill="#009B78"/>
<path d="M34.2807 24.41L34.0024 23.7672H32.3578L32.0777 24.41H31.7222L33.0233 21.5186H33.337L34.6362 24.4122L34.2807 24.41ZM33.1792 21.8762L32.496 23.4462H33.8617L33.1792 21.8762Z" fill="#009B78"/>
<path d="M38.876 24.41L36.9639 21.9968V24.41H36.6501V21.5186H36.9639L38.876 23.9318V21.5186H39.1897V24.4122L38.876 24.41Z" fill="#009B78"/>
<path d="M41.9947 24.3908C41.8685 24.3611 41.7453 24.3162 41.6271 24.2569C41.5402 24.2148 41.4583 24.1598 41.3838 24.0931V23.7011C41.4646 23.7776 41.5534 23.8422 41.6481 23.8934C41.7726 23.9633 41.9027 24.019 42.0366 24.0595C42.1834 24.104 42.3347 24.1263 42.4866 24.126C42.7031 24.1365 42.9191 24.0939 43.1203 24.001C43.2763 23.9183 43.3529 23.8109 43.3529 23.6822C43.353 23.6497 43.3475 23.6176 43.3366 23.5877C43.3257 23.5578 43.3097 23.5307 43.2896 23.5081C43.2368 23.4482 43.1757 23.3987 43.1089 23.3618C43.0241 23.3154 42.9369 23.2749 42.8478 23.2405C42.7496 23.2017 42.6463 23.1637 42.5398 23.1249C42.4048 23.0781 42.2736 23.0276 42.1424 22.9786C42.0186 22.9296 41.8986 22.8687 41.7837 22.7965C41.6846 22.7373 41.596 22.6572 41.5226 22.5603C41.458 22.4715 41.4231 22.3589 41.4243 22.243C41.4249 22.0958 41.4759 21.9549 41.5663 21.851C41.6763 21.7228 41.8115 21.6272 41.9605 21.5724C42.1493 21.5017 42.347 21.4676 42.5455 21.4715C42.6901 21.469 42.8346 21.484 42.9765 21.5161C43.0877 21.543 43.1962 21.583 43.3003 21.6353C43.389 21.6807 43.4749 21.7327 43.5577 21.791V22.1567L43.4753 22.1004C43.402 22.0546 43.3267 22.0134 43.2496 21.9768C43.1439 21.9255 43.035 21.8835 42.9239 21.851C42.7986 21.8142 42.6698 21.7958 42.5404 21.7962C42.3982 21.7932 42.2562 21.8121 42.1183 21.8525C42.017 21.8777 41.9215 21.9276 41.8382 21.9988C41.8094 22.0201 41.7853 22.0489 41.7679 22.083C41.7505 22.117 41.7403 22.1553 41.738 22.1947C41.7381 22.2262 41.7438 22.2575 41.7547 22.2864C41.7656 22.3153 41.7815 22.3413 41.8014 22.3629C41.853 22.4203 41.9128 22.4669 41.9783 22.5004C42.0605 22.5464 42.1451 22.5862 42.2318 22.6196C42.3262 22.6576 42.4283 22.6927 42.5328 22.7329C42.6678 22.779 42.8028 22.8302 42.9359 22.8843C43.062 22.9361 43.1845 22.9989 43.3022 23.0722C43.4042 23.1352 43.4951 23.2195 43.5703 23.3209C43.6372 23.4139 43.6732 23.5313 43.6717 23.6522C43.6713 23.7726 43.6419 23.8906 43.5869 23.993C43.5319 24.0954 43.4533 24.1781 43.3599 24.232C43.0885 24.3921 42.7852 24.4661 42.4809 24.4463C42.3176 24.4483 42.1546 24.4296 41.9947 24.3908V24.3908Z" fill="#009B78"/>
<path d="M45.8674 24.4101V21.5186H47.1946C47.3519 21.5164 47.5072 21.5594 47.6465 21.6437C47.7794 21.7231 47.8918 21.8417 47.9722 21.9874C48.0514 22.1367 48.0933 22.3085 48.0933 22.4836C48.0933 22.6587 48.0514 22.8304 47.9722 22.9797C47.8913 23.1249 47.779 23.2434 47.6465 23.3234C47.5071 23.4076 47.3518 23.4506 47.1946 23.4485H46.1805V24.4123L45.8674 24.4101ZM47.4855 23.0441C47.5729 22.9929 47.6468 22.9153 47.6991 22.8196C47.7544 22.7181 47.7823 22.6001 47.7795 22.4803C47.7824 22.3609 47.7544 22.2433 47.6991 22.1424C47.6467 22.0468 47.5729 21.9692 47.4855 21.9179C47.3958 21.8634 47.2959 21.8355 47.1946 21.8367H46.1805V23.1216H47.1946C47.2955 23.1231 47.3953 23.0965 47.4855 23.0441V23.0441Z" fill="#009B78"/>
<path d="M51.0128 24.3281C50.8442 24.2579 50.6898 24.1486 50.559 24.0071C50.4381 23.8741 50.3432 23.7128 50.2808 23.534C50.1548 23.1623 50.1548 22.7495 50.2808 22.3778C50.3443 22.1989 50.4397 22.0374 50.5609 21.904C50.6916 21.7627 50.8461 21.654 51.0147 21.5844C51.4168 21.4309 51.8511 21.4309 52.2531 21.5844C52.422 21.6534 52.5765 21.7623 52.7069 21.904C52.8275 22.0378 52.9223 22.1995 52.9851 22.3785C53.1114 22.7502 53.1114 23.1631 52.9851 23.5347C52.9228 23.7135 52.8279 23.8749 52.7069 24.0078C52.5765 24.1499 52.422 24.2592 52.2531 24.3288C51.8511 24.4826 51.4168 24.4826 51.0147 24.3288L51.0128 24.3281ZM52.2493 23.9625C52.4083 23.8665 52.5402 23.7201 52.6296 23.5405C52.7155 23.3615 52.7605 23.1602 52.7605 22.9555C52.7605 22.7509 52.7155 22.5496 52.6296 22.3705C52.5403 22.1907 52.4084 22.044 52.2493 21.9478C52.056 21.844 51.8453 21.7902 51.632 21.7902C51.4187 21.7902 51.2081 21.844 51.0147 21.9478C50.8545 22.0435 50.7214 22.1902 50.6313 22.3705C50.5455 22.5496 50.5004 22.7509 50.5004 22.9555C50.5004 23.1602 50.5455 23.3614 50.6313 23.5405C50.7215 23.7206 50.8546 23.867 51.0147 23.9625C51.208 24.0664 51.4187 24.1202 51.632 24.1202C51.8453 24.1202 52.056 24.0664 52.2493 23.9625V23.9625Z" fill="#009B78"/>
<path d="M57.2966 24.4102L56.4265 23.2847H55.5823V24.4102H55.2686V21.5187H56.5956C56.7517 21.516 56.9064 21.5519 57.0494 21.624C57.179 21.6895 57.2909 21.794 57.3733 21.9267C57.4573 22.0657 57.5004 22.232 57.4962 22.4013C57.4985 22.5476 57.467 22.692 57.405 22.8196C57.3449 22.9385 57.2607 23.0389 57.1597 23.1122C57.0509 23.1894 56.9302 23.2416 56.8042 23.2657L57.6693 24.4116L57.2966 24.4102ZM56.8872 22.903C56.9721 22.8662 57.0462 22.8023 57.1008 22.7187C57.1575 22.6257 57.1859 22.5135 57.1813 22.3999C57.1854 22.2861 57.1572 22.1738 57.1008 22.0803C57.046 21.9971 56.972 21.9335 56.8872 21.8968C56.7941 21.8572 56.6955 21.8374 56.5963 21.8383H55.5823V22.9637H56.5963C56.6955 22.9648 56.794 22.9442 56.8865 22.903H56.8872Z" fill="#009B78"/>
<path d="M60.6189 24.41V21.8374H59.6086V21.5186H61.9429V21.8396H60.9326V24.4122L60.6189 24.41Z" fill="#009B78"/>
<path d="M67.7067 24.3908C67.5804 24.3611 67.4572 24.3162 67.3391 24.2569C67.2521 24.2148 67.1703 24.1598 67.0957 24.0931V23.7011C67.1765 23.7776 67.2653 23.8422 67.36 23.8934C67.4845 23.9633 67.6146 24.0189 67.7485 24.0595C67.8954 24.1039 68.0466 24.1263 68.1985 24.126C68.415 24.1365 68.631 24.0939 68.8323 24.001C68.9882 23.9183 69.0649 23.8109 69.0649 23.6822C69.065 23.6497 69.0594 23.6176 69.0486 23.5877C69.0377 23.5578 69.0216 23.5307 69.0015 23.5081C68.9487 23.4482 68.8877 23.3987 68.8209 23.3618C68.736 23.3154 68.6488 23.2749 68.5598 23.2405C68.4615 23.2017 68.3582 23.1637 68.2517 23.1249C68.1167 23.0781 67.9855 23.0276 67.8537 22.9786C67.7299 22.9296 67.61 22.8687 67.495 22.7965C67.3959 22.7373 67.3073 22.6572 67.2338 22.5603C67.1692 22.4716 67.1343 22.359 67.1356 22.243C67.1361 22.0958 67.1872 21.9548 67.2776 21.851C67.3876 21.7228 67.5228 21.6272 67.6718 21.5724C67.8606 21.5017 68.0583 21.4676 68.2568 21.4715C68.4014 21.469 68.5458 21.484 68.6878 21.5161C68.7989 21.543 68.9075 21.583 69.0117 21.6353C69.1003 21.6807 69.1862 21.7327 69.2689 21.791V22.1567L69.1866 22.1004C69.1131 22.0546 69.0375 22.0134 68.9603 21.9768C68.8546 21.9255 68.7457 21.8835 68.6345 21.851C68.5092 21.8142 68.3804 21.7958 68.2511 21.7962C68.1089 21.7932 67.9669 21.8122 67.829 21.8525C67.7277 21.8777 67.6322 21.9276 67.5488 21.9988C67.52 22.02 67.4959 22.0489 67.4785 22.0829C67.4611 22.117 67.4509 22.1552 67.4487 22.1947C67.4488 22.2262 67.4545 22.2575 67.4654 22.2864C67.4763 22.3153 67.4922 22.3413 67.5121 22.3629C67.5636 22.4203 67.6235 22.4668 67.6889 22.5004C67.7711 22.5464 67.8558 22.5862 67.9424 22.6196C68.0369 22.6576 68.1389 22.6927 68.2435 22.7329C68.3785 22.779 68.5128 22.8302 68.6459 22.8843C68.7718 22.9361 68.8941 22.9989 69.0117 23.0722C69.1136 23.1352 69.2045 23.2196 69.2797 23.3209C69.3466 23.4139 69.3826 23.5313 69.3811 23.6522C69.3807 23.7726 69.3513 23.8906 69.2963 23.993C69.2412 24.0954 69.1627 24.1781 69.0693 24.232C68.7979 24.3921 68.4945 24.4661 68.1902 24.4463C68.0278 24.448 67.8656 24.4294 67.7067 24.3908V24.3908Z" fill="#009B78"/>
<path d="M72.3132 24.3289C72.1448 24.2587 71.9906 24.1494 71.8601 24.0078C71.7388 23.875 71.6436 23.7137 71.5812 23.5347C71.455 23.1631 71.455 22.7502 71.5812 22.3786C71.6441 22.1994 71.7391 22.0377 71.8601 21.904C71.9906 21.7628 72.1448 21.654 72.3132 21.5844C72.7153 21.4308 73.1496 21.4308 73.5516 21.5844C73.7205 21.6535 73.875 21.7623 74.0054 21.904C74.1262 22.0378 74.2213 22.1995 74.2843 22.3786C74.4101 22.7503 74.4101 23.163 74.2843 23.5347C74.2217 23.7136 74.1266 23.8749 74.0054 24.0078C73.875 24.1499 73.7205 24.2592 73.5516 24.3289C73.1496 24.4826 72.7153 24.4826 72.3132 24.3289V24.3289ZM73.5497 23.9632C73.7098 23.8677 73.8429 23.7213 73.9332 23.5413C74.0191 23.3622 74.0641 23.1609 74.0641 22.9563C74.0641 22.7516 74.0191 22.5503 73.9332 22.3713C73.843 22.191 73.7099 22.0443 73.5497 21.9486C73.3564 21.8447 73.1457 21.7909 72.9324 21.7909C72.7191 21.7909 72.5084 21.8447 72.3151 21.9486C72.1548 22.0442 72.0217 22.1909 71.9316 22.3713C71.8456 22.5503 71.8005 22.7516 71.8005 22.9563C71.8005 23.161 71.8456 23.3623 71.9316 23.5413C72.0218 23.7214 72.1549 23.8679 72.3151 23.9632C72.5084 24.0672 72.7191 24.1211 72.9324 24.1211C73.1457 24.1211 73.3564 24.0672 73.5497 23.9632V23.9632Z" fill="#009B78"/>
<path d="M76.5764 24.41V21.5186H76.8902V24.0912H78.5976V24.4122L76.5764 24.41Z" fill="#009B78"/>
<path d="M80.8589 24.0066C80.6862 23.6938 80.6041 23.3258 80.6244 22.9557V21.5107H80.9381V22.9579C80.9373 23.1096 80.9476 23.261 80.9691 23.4106C80.987 23.5432 81.029 23.6701 81.0921 23.7828C81.1553 23.8932 81.2446 23.9802 81.3495 24.0336C81.6358 24.1556 81.9504 24.1556 82.2367 24.0336C82.3416 23.9803 82.431 23.8932 82.4941 23.7828C82.557 23.67 82.5986 23.5432 82.6164 23.4106C82.6382 23.261 82.6488 23.1096 82.6481 22.9579V21.5107H82.9619V22.9579C82.9819 23.328 82.8998 23.6958 82.7273 24.0088C82.4775 24.2887 82.143 24.4454 81.7947 24.4454C81.4465 24.4454 81.1119 24.2887 80.862 24.0088L80.8589 24.0066Z" fill="#009B78"/>
<path d="M86.1658 24.41V21.8374H85.1555V21.5186H87.4898V21.8396H86.4795V24.4122L86.1658 24.41Z" fill="#009B78"/>
<path d="M89.4514 24.41V21.5186H89.7651V24.4122L89.4514 24.41Z" fill="#009B78"/>
<path d="M92.8761 24.3289C92.7074 24.2587 92.5529 24.1494 92.4222 24.0078C92.3011 23.875 92.2063 23.7136 92.144 23.5347C92.0177 23.1631 92.0177 22.7502 92.144 22.3786C92.2067 22.1995 92.3015 22.0377 92.4222 21.904C92.5529 21.7627 92.7074 21.6539 92.8761 21.5844C93.0752 21.5042 93.285 21.4653 93.4959 21.4696C93.7062 21.4651 93.9154 21.5039 94.1138 21.5844C94.2826 21.6534 94.4371 21.7623 94.5675 21.904C94.6883 22.0378 94.7834 22.1995 94.8464 22.3786C94.9724 22.7502 94.9724 23.163 94.8464 23.5347C94.7838 23.7136 94.6887 23.8749 94.5675 24.0078C94.4371 24.1499 94.2827 24.2592 94.1138 24.3289C93.9154 24.4095 93.7062 24.4487 93.4959 24.4444C93.285 24.4485 93.0751 24.4093 92.8761 24.3289V24.3289ZM94.1125 23.9632C94.2726 23.8677 94.4057 23.7212 94.496 23.5413C94.5818 23.3622 94.6268 23.1609 94.6268 22.9562C94.6268 22.7516 94.5818 22.5503 94.496 22.3712C94.4058 22.191 94.2727 22.0443 94.1125 21.9486C93.9191 21.8447 93.7085 21.7909 93.4952 21.7909C93.2819 21.7909 93.0713 21.8447 92.8779 21.9486C92.7177 22.0442 92.5846 22.1909 92.4945 22.3712C92.4087 22.5503 92.3637 22.7516 92.3637 22.9562C92.3637 23.1609 92.4087 23.3622 92.4945 23.5413C92.5847 23.7213 92.7177 23.8678 92.8779 23.9632C93.0712 24.0672 93.2819 24.121 93.4952 24.121C93.7085 24.121 93.9192 24.0672 94.1125 23.9632V23.9632Z" fill="#009B78"/>
<path d="M99.4524 24.41L97.5403 21.9968V24.41H97.2266V21.5186H97.5403L99.4524 23.9318V21.5186H99.7661V24.4122L99.4524 24.41Z" fill="#009B78"/>
<path d="M102.661 24.3908C102.535 24.361 102.411 24.3162 102.293 24.2569C102.206 24.2147 102.124 24.1597 102.05 24.0931V23.7011C102.131 23.7776 102.22 23.8422 102.315 23.8934C102.439 23.9634 102.569 24.019 102.703 24.0595C102.85 24.104 103.001 24.1263 103.153 24.126C103.37 24.1366 103.586 24.0939 103.787 24.001C103.943 23.9183 104.02 23.8109 104.02 23.6822C104.02 23.6497 104.015 23.6176 104.004 23.5877C103.993 23.5578 103.977 23.5307 103.957 23.5081C103.904 23.4483 103.843 23.3988 103.776 23.3618C103.691 23.3154 103.604 23.2749 103.515 23.2405C103.417 23.2017 103.314 23.1637 103.207 23.1249C103.072 23.0781 102.941 23.0276 102.81 22.9786C102.686 22.9296 102.566 22.8687 102.451 22.7965C102.352 22.7373 102.263 22.6572 102.19 22.5603C102.125 22.4716 102.09 22.359 102.092 22.243C102.092 22.0958 102.143 21.9549 102.234 21.851C102.344 21.7228 102.479 21.6272 102.628 21.5724C102.817 21.5017 103.014 21.4676 103.213 21.4715C103.357 21.469 103.502 21.484 103.644 21.5161C103.755 21.543 103.863 21.583 103.968 21.6353C104.056 21.6807 104.142 21.7327 104.225 21.791V22.1567L104.143 22.1004C104.069 22.0547 103.994 22.0134 103.917 21.9768C103.811 21.9255 103.702 21.8835 103.591 21.851C103.467 21.8145 103.339 21.796 103.211 21.7962C103.069 21.7932 102.927 21.8121 102.789 21.8525C102.687 21.8777 102.592 21.9276 102.508 21.9988C102.479 22.0202 102.455 22.049 102.438 22.0831C102.421 22.1171 102.411 22.1553 102.409 22.1947C102.409 22.2262 102.414 22.2574 102.425 22.2864C102.436 22.3153 102.452 22.3414 102.472 22.3629C102.523 22.4203 102.583 22.4669 102.649 22.5004C102.731 22.5464 102.816 22.5863 102.902 22.6196C102.997 22.6576 103.099 22.6927 103.203 22.7329C103.338 22.779 103.473 22.8302 103.606 22.8843C103.732 22.9361 103.854 22.9989 103.972 23.0722C104.074 23.1352 104.165 23.2195 104.239 23.3209C104.306 23.4138 104.342 23.5313 104.341 23.6522C104.34 23.7726 104.311 23.8906 104.256 23.993C104.201 24.0954 104.122 24.1781 104.029 24.232C103.758 24.3922 103.454 24.4661 103.149 24.4463C102.985 24.4485 102.821 24.4298 102.661 24.3908V24.3908Z" fill="#009B78"/>
<path d="M15.5814 7.10999C14.8861 6.7732 14.1691 6.48683 13.4355 6.25294C12.6901 6.01527 11.9143 5.78857 11.1364 5.58015L10.8795 5.50702C10.3727 5.36076 9.89128 5.22767 9.43881 5.08434C8.96385 4.94231 8.49739 4.77139 8.04187 4.57246C7.72913 4.44984 7.43778 4.27521 7.17928 4.05545C7.12429 4.01626 7.07887 3.96433 7.04664 3.90378C7.01441 3.84323 6.99627 3.77571 6.99364 3.70661C6.99364 3.54939 7.18281 3.38194 7.34658 3.26786C7.77988 2.98706 8.26058 2.79375 8.76328 2.69818C9.51114 2.52814 10.2756 2.44913 11.0411 2.46272C11.7361 2.46047 12.4291 2.53699 13.108 2.69089C13.7131 2.82726 14.3088 3.00536 14.891 3.22399C15.4473 3.43679 15.8397 3.60277 16.1157 3.74172L16.5823 3.99108C16.6585 4.03169 16.7434 4.05134 16.829 4.04815C16.9146 4.04495 16.998 4.01901 17.0711 3.97283C17.1443 3.92665 17.2047 3.86178 17.2467 3.78443C17.2886 3.70708 17.3107 3.61985 17.3108 3.53111V1.92743C17.3108 1.834 17.2864 1.7423 17.2402 1.66208C17.194 1.58186 17.1276 1.5161 17.0482 1.47183C16.5566 1.2025 16.0498 0.964173 15.5305 0.758119C14.9059 0.514805 14.2615 0.330267 13.6049 0.206738C12.768 0.0584854 11.9198 -0.0103006 11.0708 0.00124482C9.90052 -0.0156841 8.73398 0.141948 7.60705 0.469272C6.71191 0.722922 5.88324 1.18177 5.18234 1.8119C4.88394 2.07077 4.64306 2.39336 4.47615 2.75761C4.30924 3.12187 4.22026 3.51917 4.21529 3.92235C4.21439 4.24886 4.27558 4.57235 4.39537 4.87436C4.51515 5.17637 4.69118 5.45101 4.9134 5.68254C5.38392 6.16296 5.93381 6.55206 6.53693 6.83136C7.21811 7.16258 7.92247 7.44005 8.64398 7.66137C9.53763 7.93926 10.2386 8.144 10.912 8.32463C11.5642 8.50671 12.1324 8.67198 12.6491 8.82921C13.1302 8.97379 13.6036 9.14466 14.0673 9.34111C14.3922 9.4759 14.6953 9.66161 14.9658 9.89176C15.026 9.93324 15.0759 9.98882 15.1114 10.054C15.147 10.1192 15.1673 10.1921 15.1706 10.2669C15.1706 10.6896 14.6228 11.004 14.164 11.1942C13.0669 11.5801 11.9109 11.7548 10.7532 11.7097C9.93191 11.7114 9.11309 11.6173 8.31222 11.4289C7.58778 11.2599 6.87915 11.0249 6.19458 10.7269C5.70145 10.5213 5.23273 10.2578 4.79764 9.94148C4.72342 9.88407 4.63525 9.84919 4.54299 9.84074C4.45073 9.83229 4.35802 9.85062 4.27524 9.89365C4.19245 9.93669 4.12286 10.0027 4.07425 10.0844C4.02564 10.1661 3.99993 10.2602 4 10.3561V12.0848C4.00024 12.1675 4.01958 12.2489 4.05643 12.3221C4.09327 12.3954 4.14654 12.4585 4.21176 12.5061C4.67644 12.8295 5.17758 13.0927 5.704 13.29C6.40813 13.5627 7.13494 13.7678 7.87527 13.9028C8.8101 14.0778 9.75876 14.1613 10.7087 14.1522C12.4983 14.2428 14.2837 13.8997 15.923 13.1503C17.6087 12.253 17.9623 11.0143 17.9623 10.1331C17.9647 9.79598 17.9027 9.46171 17.78 9.14948C17.6573 8.83725 17.4762 8.55321 17.2473 8.31367C16.7658 7.81257 16.2016 7.4049 15.5814 7.10999V7.10999Z" fill="#009B78"/>
<path d="M35.3023 0.813703C34.4314 0.407166 33.4855 0.202268 32.5303 0.213315H25.0015C24.8691 0.213315 24.7422 0.267775 24.6486 0.364734C24.555 0.461693 24.5024 0.593208 24.5024 0.730328V13.4911C24.5024 13.6282 24.555 13.7597 24.6486 13.8567C24.7422 13.9536 24.8691 14.0081 25.0015 14.0081H26.7796C26.9119 14.0081 27.0389 13.9536 27.1325 13.8567C27.2261 13.7597 27.2786 13.6282 27.2786 13.4911V9.75794H32.5303C33.486 9.76895 34.4325 9.56381 35.3037 9.15684C36.1075 8.78459 36.8075 8.20805 37.3388 7.48073C37.8477 6.75578 38.1219 5.88241 38.1219 4.98598C38.1219 4.08956 37.8477 3.21619 37.3388 2.49123C36.8103 1.76015 36.1089 1.18243 35.3023 0.813703V0.813703ZM32.5303 7.29791H27.2786V2.66455H32.5303C33.029 2.65716 33.5231 2.76377 33.9774 2.9768C34.3811 3.15508 34.7319 3.44126 34.9939 3.80607C35.2364 4.14518 35.3608 4.55943 35.3468 4.98123C35.3602 5.40758 35.2341 5.82612 34.9889 6.16884C34.7275 6.53215 34.3777 6.81705 33.9753 6.99445C33.5198 7.20044 33.0273 7.30386 32.5303 7.29791V7.29791Z" fill="#009B78"/>
<path d="M54.89 8.74284C55.3256 8.61265 55.7469 8.43571 56.1471 8.21487C56.7731 7.86564 57.3091 7.36582 57.71 6.75743C58.1115 6.12541 58.3205 5.38303 58.3099 4.62649C58.3299 3.74517 58.0433 2.88583 57.5024 2.20525C56.957 1.53373 56.2529 1.02002 55.4589 0.714176C54.579 0.372564 53.6455 0.20344 52.7059 0.21544H45.1763C45.0439 0.21544 44.917 0.269901 44.8234 0.36686C44.7298 0.463819 44.6772 0.595333 44.6772 0.732454V13.4932C44.6772 13.6303 44.7298 13.7619 44.8234 13.8588C44.917 13.9558 45.0439 14.0102 45.1763 14.0102H46.9544C47.0868 14.0102 47.2137 13.9558 47.3073 13.8588C47.4009 13.7619 47.4535 13.6303 47.4535 13.4932V9.04707H51.5391L56.3299 13.864C56.4231 13.9578 56.548 14.0103 56.6779 14.0102H58.7956C58.8946 14.0105 58.9915 13.9803 59.0738 13.9235C59.1562 13.8666 59.2204 13.7856 59.2583 13.6908C59.2961 13.596 59.3059 13.4917 59.2863 13.3912C59.2668 13.2906 59.2188 13.1984 59.1485 13.1261L54.89 8.74284ZM47.4542 2.66594H52.7059C53.2108 2.66118 53.7133 2.73917 54.1946 2.89703C54.5766 3.01998 54.9194 3.24734 55.1871 3.55517C55.4058 3.86568 55.524 4.23995 55.5248 4.62432C55.5256 5.0087 55.4088 5.38345 55.1913 5.69488C54.9223 6.00312 54.5779 6.23051 54.1946 6.35305C53.7149 6.51787 53.2121 6.59893 52.7067 6.59291H47.4549L47.4542 2.66594Z" fill="#009B78"/>
<path d="M77.8024 11.5579H68.6175V8.33299H76.4217C76.5541 8.33299 76.681 8.27853 76.7746 8.18157C76.8682 8.08461 76.9208 7.95309 76.9208 7.81597V6.39877C76.9208 6.26165 76.8682 6.13013 76.7746 6.03317C76.681 5.93622 76.5541 5.88176 76.4217 5.88176H68.6175V2.66414H77.405C77.5374 2.66414 77.6643 2.60966 77.7579 2.5127C77.8515 2.41574 77.9041 2.28425 77.9041 2.14713V0.729904C77.9041 0.592783 77.8515 0.461291 77.7579 0.364332C77.6643 0.267374 77.5374 0.212891 77.405 0.212891H66.3403C66.208 0.212891 66.0811 0.267374 65.9875 0.364332C65.8939 0.461291 65.8413 0.592783 65.8413 0.729904V13.4907C65.8413 13.6278 65.8939 13.7593 65.9875 13.8563C66.0811 13.9532 66.208 14.0077 66.3403 14.0077H77.8024C77.9348 14.0077 78.0617 13.9532 78.1553 13.8563C78.2489 13.7593 78.3015 13.6278 78.3015 13.4907V12.0742C78.3013 11.9372 78.2486 11.8059 78.1551 11.7091C78.0615 11.6123 77.9347 11.5579 77.8024 11.5579V11.5579Z" fill="#009B78"/>
<path d="M94.6026 0.466399C94.5583 0.389708 94.4955 0.326236 94.4204 0.282151C94.3453 0.238067 94.2605 0.214877 94.1742 0.214844H92.3961C92.3097 0.214877 92.225 0.238067 92.1499 0.282151C92.0748 0.326236 92.0119 0.389708 91.9675 0.466399L84.5876 13.2272C84.5421 13.3057 84.5175 13.3953 84.5164 13.4868C84.5153 13.5784 84.5376 13.6686 84.5812 13.7483C84.6248 13.828 84.6881 13.8942 84.7645 13.9403C84.8409 13.9863 84.9277 14.0105 85.0161 14.0104H87.0321C87.1195 14.0105 87.2054 13.9867 87.2812 13.9416C87.3571 13.8964 87.4202 13.8313 87.4641 13.753L88.909 11.1767H97.6619L99.097 13.7515C99.1408 13.8302 99.2038 13.8956 99.2798 13.9411C99.3558 13.9865 99.4419 14.0104 99.5297 14.0104H101.546C101.634 14.0103 101.721 13.9859 101.797 13.9398C101.873 13.8937 101.936 13.8275 101.98 13.7479C102.023 13.6683 102.046 13.5782 102.045 13.4868C102.044 13.3953 102.019 13.3057 101.974 13.2272L94.6026 0.466399ZM96.2876 8.72471H90.2735L93.2806 3.34911L96.2876 8.72471Z" fill="#009B78"/>
<path d="M121.681 1.93772C120.186 0.794737 118.04 0.214844 115.306 0.214844H109.048C108.916 0.214844 108.789 0.269305 108.695 0.366263C108.602 0.463222 108.549 0.594737 108.549 0.731857V13.4926C108.549 13.6298 108.602 13.7613 108.695 13.8582C108.789 13.9552 108.916 14.0097 109.048 14.0097H115.306C118.045 14.0097 120.19 13.4246 121.683 12.2765C122.409 11.6413 122.992 10.8497 123.393 9.95677C123.793 9.06387 124 8.09125 124 7.10676C124 6.12227 123.793 5.14965 123.393 4.25675C122.992 3.36385 122.409 2.57219 121.683 1.93701L121.681 1.93772ZM118.645 11.086C117.564 11.4254 116.437 11.5848 115.307 11.5584H111.327V2.66608H115.307C116.438 2.63331 117.566 2.79315 118.647 3.13921C119.421 3.36895 120.1 3.85743 120.579 4.52863C121.001 5.31831 121.222 6.20622 121.222 7.10895C121.222 8.01167 121.001 8.89959 120.579 9.68926C120.096 10.3589 119.418 10.8488 118.645 11.086H118.645Z" fill="#009B78"/>
</g>
<defs>
<filter id="filter0_d_126_2012" x="0" y="0" width="128" height="32.4497" filterUnits="userSpaceOnUse" color-interpolation-filters="sRGB">
<feFlood flood-opacity="0" result="BackgroundImageFix"/>
<feColorMatrix in="SourceAlpha" type="matrix" values="0 0 0 0 0 0 0 0 0 0 0 0 0 0 0 0 0 0 127 0" result="hardAlpha"/>
<feOffset dy="4"/>
<feGaussianBlur stdDeviation="2"/>
<feComposite in2="hardAlpha" operator="out"/>
<feColorMatrix type="matrix" values="0 0 0 0 0 0 0 0 0 0 0 0 0 0 0 0 0 0 0.25 0"/>
<feBlend mode="normal" in2="BackgroundImageFix" result="effect1_dropShadow_126_2012"/>
<feBlend mode="normal" in="SourceGraphic" in2="effect1_dropShadow_126_2012" result="shape"/>
</filter>
</defs>
</svg>
